<svg xmlns="http://www.w3.org/2000/svg" viewBox="0 0 707.24 480.24"><g id="e2382f51-e082-4391-a394-19569622593e" data-name="Layer 2"><g id="bc8fdfd7-f7b2-4d31-8e25-7636e9c57e9a" data-name="Layer 23"><path d="M24.71,266.87c-8.17,18.22,0,102.91.65,120.72,33-15.83,96.75-19.35,96.75-19.35.66-17.15-4.71-56.88,2.2-74.32,3.39-8-5.48-18.25-6.29-25.73" transform="translate(-0.25)" fill="#6a6b6b"/><path d="M24.67,357.86c10.09-3.44,20.57-5.93,30.88-8.55,14.34-3.64,28.75-7.1,43.29-9.83a125.67,125.67,0,0,1,17.36-2.43c.34,0,1-.54.39-.51a114.26,114.26,0,0,0-15.07,2c-6.94,1.24-13.84,2.71-20.72,4.25q-21.36,4.8-42.48,10.6c-4.69,1.29-9.41,2.56-14,4.13-.64.22-.05.51.37.36Z" transform="translate(-0.25)" fill="#4f504f"/><path d="M99.55,369.52c-1.16-7.3-1.62-14.73-2.07-22.1-.5-8.09-.84-16.2-1.07-24.31-.08-3-.15-6-.16-9,0-.4-1.93-.1-1.93.52,0,14.7.75,29.5,2,44.15.33,3.76.69,7.53,1.29,11.26.07.47,2,0,1.93-.52Z" transform="translate(-0.25)" fill="#4f504f"/><path d="M40.23,288.9c.75,11.13,1.71,22.25,2.63,33.37,1.2,14.36,2.42,28.71,3.8,43.05.44,4.58.81,9.18,1.49,13.73.11.77,2.05.3,1.93-.52-1.53-10.36-2.18-20.9-3.1-31.33Q45,325.41,43.31,303.58c-.4-5.07-.81-10.13-1.15-15.2,0-.74-2-.31-1.93.52Z" transform="translate(-0.25)" fill="#4f504f"/><path d="M22.22,306.92a170.72,170.72,0,0,0,19.45-3.22,136.45,136.45,0,0,1,21.76-2.93c.34,0,1-.54.39-.51A135.45,135.45,0,0,0,42.59,303a182,182,0,0,1-20.23,3.38c-.46,0-.82.56-.14.5Z" transform="translate(-0.25)" fill="#4f504f"/></g><g id="f1199a68-98d3-4f9c-8707-a4e64028cf66" data-name="Layer 26"><path d="M261.16,414.84c-20.44-5.79-43.8-17.24-65.57-24.22-25.44-7.88-41.66-16.27-63-25.78,14.59-.63,21.33-9.63,33.73-10.93,12.35-1,38.44,12.52,49.1,17.43,29.31,12.39,61.9,23.33,88,36.51-5.71,2.35-18.65,2.27-26.54,3.95-6.3,1.28-12.65,2.88-19.49,2.78" transform="translate(-0.25)"/><path d="M261.72,414.21c-17.84-5.08-34.76-12.95-52.09-19.48-8.81-3.32-17.82-6-26.68-9.15-8.06-2.89-16-6.15-23.83-9.61-8.7-3.84-17.31-7.89-26-11.76l-.66,1.31A43.37,43.37,0,0,0,149,361c4.77-2.27,9.41-4.91,14.64-6,4.31-.89,8.58-.12,12.78,1a119.26,119.26,0,0,1,14.94,5.27c9.06,3.75,17.74,8.36,26.79,12.13,13.5,5.61,27.18,10.78,40.79,16.13,14.77,5.8,29.52,11.75,43.71,18.89l.33-1.09a35.33,35.33,0,0,1-9.17,1.8c-3.66.41-7.34.68-11,1.11-8.42,1-16.56,3.76-25.1,3.68-.42,0-1.09.11-1.26.58a.56.56,0,0,0,.57.77c8.86.09,17.24-2.73,26-3.72,3.85-.43,7.7-.71,11.54-1.17a36.46,36.46,0,0,0,9.3-2c.35-.14.88-.8.33-1.08-25.89-13-53.44-22.36-80.23-33.28-4.88-2-9.66-4.09-14.42-6.35-4.58-2.19-9.18-4.34-13.85-6.35a148.75,148.75,0,0,0-15.27-5.79,42.42,42.42,0,0,0-13-2.35c-5.77.09-11.25,2.73-16.31,5.24-5.93,2.94-11.79,5.4-18.49,5.73-.67,0-1.6.89-.66,1.31,15.46,6.88,30.69,14.27,46.56,20.17,8.78,3.27,17.77,5.87,26.56,9.08s17.75,6.91,26.6,10.44a298.71,298.71,0,0,0,28.88,10.31c.8.23,2.28-.93,1.13-1.26Z" transform="translate(-0.25)" fill="#461853"/><path d="M125.63,336c-9.07,6.6-19.84,5.66-35.46,11,21.38,9.51,17.65,7.42,39.84,16.16l36-11.38" transform="translate(-0.25)"/><path d="M125,335.55c-4.51,3.24-9.8,4.68-15.15,5.84a175,175,0,0,0-19.84,5c-.59.2-1.22.89-.4,1.26,6.53,2.9,13,5.81,19.71,8.41,2.62,1,5.25,2,7.87,3l5.44,2.09,3.37,1.31,1.67.65a7,7,0,0,0,2.12.75,10.1,10.1,0,0,0,2.69-.77l6.17-1.95,16.74-5.29,10.81-3.42c1.16-.36.85-1.63-.33-1.26l-25.32,8-6.87,2.17a21.36,21.36,0,0,1-3.64,1.15,1.17,1.17,0,0,1-.2.06c.6,0-.13-.33-.17-.35a6.54,6.54,0,0,0-.87-.34l-2.07-.81q-3.09-1.21-6.19-2.4l-8.49-3.23c-7.21-2.77-14.26-5.89-21.31-9l-.4,1.26c6.71-2.3,13.62-3.62,20.53-5.15,5.45-1.2,10.81-2.82,15.39-6.12,1.07-.76-.52-1.36-1.26-.83Z" transform="translate(-0.25)" fill="#461853"/><path d="M175.22,377.58c-1.1,2.42-7.15,4.95-7.48,7.48,3.3,1.54,9.23-4.62,10.88-5.28" transform="translate(-0.25)" fill="#fff"/><path d="M174.29,377.46a5.5,5.5,0,0,1-1.52,1.68c-.81.67-1.67,1.27-2.5,1.89-1.35,1-3.23,2.29-3.51,4.1a.58.58,0,0,0,.42.59c2.33,1,5-.55,6.94-1.8,1-.68,2-1.44,3-2.2.39-.3.78-.61,1.19-.89.17-.12.33-.24.51-.35-.23.14.15-.08.24-.11.37-.16.71-.63.45-1s-.94-.31-1.32-.15a10,10,0,0,0-2,1.35c-.89.68-1.77,1.38-2.7,2a14.93,14.93,0,0,1-2.93,1.68,2.74,2.74,0,0,1-2.25.15l.43.59a3.26,3.26,0,0,1,1.09-1.64,25.17,25.17,0,0,1,2.3-1.82c1.43-1,3.24-2.17,4-3.83.21-.43-.19-.78-.59-.83a1.23,1.23,0,0,0-1.26.59Z" transform="translate(-0.25)" fill="#461853"/><rect x="168.41" y="375.9" width="4.82" height="18.91" transform="translate(-250.58 403.07) rotate(-68.5)" fill="#fff"/></g><g id="b69d0e01-3abe-4a95-88d8-f93bee02563e" data-name="Layer 18"><path d="M255.42,399.41c-.33,9.56-.33,10.88,0,21.76.14,4.84,1.21,16.06,1,15.84,9.23-.33,76.29,5.73,83.33,5.6,17.59-.33,38.26-29.46,31.23-32.32-11.22-4.62-24.19-5.06-36.29-5.94-10.77-1.1-21.76-1.32-32.54-2a75.08,75.08,0,0,0-12.09,0c-3.3.44-6.6,2.2-9.9,2-4.39-.44-7.69-4-12.09-4.83C265.2,399.3,255.42,399.41,255.42,399.41Z" transform="translate(-0.25)" fill="#23100a"/><path d="M254.45,399.53a290,290,0,0,0,.67,32.16c.09,1.22.19,2.45.27,3.68,0,.41,0,.83.07,1.24,0,.14-.05.57.06.39l1.49-.5h0l-1,1.05c4.49-.15,9.05.3,13.54.6,7.66.49,15.31,1.08,23,1.67,14.18,1.09,28.35,2.37,42.55,3.17,1.5.09,3,.21,4.52.16a25.63,25.63,0,0,0,11.16-3.34,53.09,53.09,0,0,0,18.35-17.19c1.75-2.62,7.28-10.9,2.21-12.94-12.51-5.05-26.4-5-39.65-6.17-7.28-.62-14.59-.91-21.89-1.27-3.5-.17-7-.41-10.5-.55a43.21,43.21,0,0,0-10.23.37c-3.22.65-6.48,2.39-9.82,1.52-2.93-.76-5.38-2.72-8.17-3.83a14.88,14.88,0,0,0-5.61-.86c-2.15,0-4.3,0-6.45,0l-3.21,0c-.35,0-1.13.13-1.28.52s.12.55.52.55c3.13,0,6.26-.05,9.39,0,.86,0,1.72,0,2.58.07a9.7,9.7,0,0,1,3.58,1.11c2.49,1.17,4.77,2.78,7.46,3.47,2.95.77,5.85-.14,8.68-.95a33.3,33.3,0,0,1,10.39-.95c7.05.21,14.11.7,21.16,1.05s13.91,1,20.87,1.48A158.63,158.63,0,0,1,359,407.46a62.61,62.61,0,0,1,9.6,2.65c1.1.41,2.33.64,2.71,1.87.66,2.17-.71,4.9-1.66,6.77A51.83,51.83,0,0,1,354,436.49a29.15,29.15,0,0,1-10.9,5.24,22.15,22.15,0,0,1-5.69.27c-13.23-.64-26.44-1.89-39.64-2.92q-11.62-.9-23.24-1.73c-5.23-.36-10.48-.76-15.73-.87-.66,0-1.33,0-2,0-.43,0-2.09.76-1,1h0a1.62,1.62,0,0,0,1.49-.5,2.05,2.05,0,0,0,.07-1.13c0-.88-.11-1.77-.18-2.65-.19-2.59-.39-5.18-.57-7.78-.37-5.51-.52-11-.49-16.58,0-3.2.13-6.4.24-9.6C256.41,398.51,254.47,398.91,254.45,399.53Z" transform="translate(-0.25)" fill="#341f10"/></g><g id="ad78a587-abae-4a88-9cdc-16f946a22b96" data-name="Layer 19"><polygon points="340.7 455.86 252.64 450.92 255.88 436.29 342.91 440.07 340.7 455.86" fill="#341f10" stroke="#341f10"/><path d="M343.31,456c4-1.32,9.9-14.13,13.86-15.23,5.71-1.76,11.21-7.37,17.48-5.55.22-2.42-.77-5.67-.55-8.08.22-2.64-.22-6.16.22-8.58.44-2.86,2.42-3.08,0-4.4-2.2-1.32-7.92-1.53-10.78-2.2-2.63-.22-6.81-1.53-9,0-2,1.32-3.52,6.16-4.62,8.36a75.1,75.1,0,0,0-5.06,16.93c-.22,2-.22,4.62-.22,6.38" transform="translate(-0.25)" fill="#231f20"/><path d="M343.73,456.55c1.67-.61,2.95-2.17,4-3.51,1.59-2,3-4.11,4.49-6.18a23,23,0,0,1,4.22-4.95,12.13,12.13,0,0,1,2.78-1.21c1.43-.6,2.8-1.35,4.17-2.09,3.27-1.77,6.83-3.77,10.65-2.75.47.13,1.5-.06,1.54-.7.2-2.89-.66-5.73-.51-8.63s-.4-5.78.29-8.55c.37-1.5,1.91-2.8.2-4s-4-1.49-6.08-1.79l-6.89-1c-2.43-.37-5.06-1-7.46-.21-2.06.7-3.16,2.62-4.05,4.48-1.09,2.25-2.07,4.6-3,6.93a78.85,78.85,0,0,0-3.46,10.9,44.84,44.84,0,0,0-1,10.46c0,1,1.95.63,1.95-.17a44,44,0,0,1,.53-8.19,68.42,68.42,0,0,1,2.54-9.33c.85-2.46,1.86-4.84,2.87-7.23a23.62,23.62,0,0,1,2.88-5.72c1.53-1.88,4.4-1.1,6.47-.77s4.14.66,6.21.94a21,21,0,0,1,6.14,1.29c.58.27,1.32.56,1.19,1.25s-.75,1.43-.95,2.18c-.73,2.75-.2,5.72-.32,8.52a24,24,0,0,0,.13,4.15,23.61,23.61,0,0,1,.37,4.67l1.54-.7c-6.77-1.81-12.29,3.46-18.28,5.58a10.64,10.64,0,0,0-4.47,3.76c-1.65,2.07-3.11,4.29-4.67,6.43-1.24,1.71-2.8,4.34-4.89,5.1-.37.14-.71.56-.47.94s.95.23,1.3.11Z" transform="translate(-0.25)" fill="#231f20"/><path d="M290.14,438.42c4,3,8.19-1.73,10.06-4.93a20,20,0,0,0,2.36-6.39,31.58,31.58,0,0,0,.75-8.66c-.13-1.52-.33-3-.4-4.56-.06-1.27-.18-2.92.57-4l-1.8.37c1,1,.84,3.2.83,4.49a57.83,57.83,0,0,1-.63,7.32c-.56,4.18-1,9-3,12.73a10.74,10.74,0,0,1-7.26,5.32c-1.16.29-.92,1.18.24.89a14.13,14.13,0,0,0,7.32-4.07,15.62,15.62,0,0,0,3.26-7,81.12,81.12,0,0,0,2-14.7c.05-1.65.35-4.41-.94-5.72-.39-.4-1.51,0-1.79.37-1.41,2.08-.67,5.45-.44,7.77a32.56,32.56,0,0,1-.62,9.74,19.32,19.32,0,0,1-2.88,7.19c-1.22,1.85-3.4,5-5.81,3.13-.52-.39-2.28.37-1.8.74Z" transform="translate(-0.25)" fill="#341f10"/><path d="M270.59,437.72c-2,.5-5.11-1.81-6.76-3-3.14-2.31-4.29-4.28-4.29-8.08,0-4.45.66-21.11-4.29-23.09.66,3.63,1.82,14,2,17.16a69.73,69.73,0,0,1,0,10.22c0,2.47-.33,5.94,2.64,6.43,1.81.33,5.11-.66,7.09-.82" transform="translate(-0.25)" fill="#341f10"/><path d="M270.72,437.18c-1.59.29-3.4-1.05-4.65-1.88a16.55,16.55,0,0,1-3.94-3.32c-1.74-2.21-1.63-4.94-1.61-7.59.05-5.24.12-10.68-1.13-15.8-.49-2-1.3-4.58-3.37-5.48-.44-.19-1.86,0-1.73.73.9,5.08,1.41,10.27,1.85,15.41a81.51,81.51,0,0,1,.18,10.6c-.1,2.19-.63,5.69,1.26,7.31,2.35,2,6.59.21,9.25-.05.95-.09,1.6-1.22.26-1.09-1.87.19-3.7.76-5.58.87s-2.93-.94-3.21-2.78a30.36,30.36,0,0,1,0-5.72,63.35,63.35,0,0,0-.07-7.42,177,177,0,0,0-2-17.64l-1.74.73c1.93.83,2.6,3.44,3,5.29a46.73,46.73,0,0,1,1,8.67c.11,2.54.1,5.09.07,7.64,0,2.84.23,5.48,2.25,7.66a21.57,21.57,0,0,0,4.57,3.48c1.49.91,3.26,1.8,5.06,1.47.31-.06,1.07-.24,1.1-.67s-.53-.48-.84-.42Z" transform="translate(-0.25)" fill="#341f10"/><path d="M300.77,431c2.14,4.29.82,7.26,7.09,6.93a98.77,98.77,0,0,1,15.67,0,46.94,46.94,0,0,1,14.18,3.29c4.78,2.15.66,3.47-2.81,3.8-5.93.66-12.36,0-18.47-.5-5.27-.33-10.72-.49-15.83-2.14-1-.33-11.38-3-7.75-4.45" transform="translate(-0.25)" fill="#341f10"/><path d="M299.8,431.22c.86,1.77,1.09,4,2.27,5.62,1.36,1.85,4.13,1.66,6.15,1.54,8.1-.48,16.39-.51,24.27,1.72a22.39,22.39,0,0,1,5.4,2c.36.22,1.18.69,1,1.23s-1,.57-1.38.67c-3.6,1-7.69.76-11.38.59-4.09-.19-8.17-.61-12.25-.86a52.93,52.93,0,0,1-12-1.74c-1.74-.52-3.51-1-5.23-1.62a14.53,14.53,0,0,1-2.77-1.21c-.22-.13-1.14-.69-.62-.91,1.23-.55.11-1.17-.76-.79-.53.24-1.37.64-1.35,1.34s.78,1.05,1.26,1.33a26.83,26.83,0,0,0,5.82,2.17,53.83,53.83,0,0,0,8.53,2c4.34.56,8.75.7,13.12,1a86.24,86.24,0,0,0,13.54.3,21.2,21.2,0,0,0,5.06-.87c.8-.27,2.15-.77,2.37-1.73.26-1.18-1.53-2-2.34-2.32a38,38,0,0,0-5.86-2A59.31,59.31,0,0,0,320,437.09c-2.68-.1-5.37-.06-8.05.06-2.08.09-4.61.65-6.64,0a3.37,3.37,0,0,1-2-2.31,43.09,43.09,0,0,0-1.52-4.11c-.32-.65-2.2,0-1.93.52Z" transform="translate(-0.25)" fill="#341f10"/></g><g id="eb8f994e-5ea0-49c8-8282-063d681ae168" data-name="Layer 20"><path d="M306.37,405.62a45.1,45.1,0,0,1,1.32,14.73c-.44,4.4-.88,8.8-1.32,13a95.25,95.25,0,0,1,32.33,2.2c-.88-4.18,0-9.89.88-14.29s1.54-9,2.63-13.41c-7.25-.88-15.17,0-22.64-.66-4.4-.44-9-1.32-13.42-2" transform="translate(-0.25)" fill="#636466"/><path d="M261.52,403.64c1.32,8,1.32,14.73,1.76,24.63,8.79,1.53,34.12,4.31,34.19,3.18.77-12.2.11-27.37-1-31.55-5.72,3.3-18.25,2.86-24.85,2.64a23.74,23.74,0,0,1-7.91-1.1c-1.32-.22-6.71-1.87-4.73.77" transform="translate(-0.25)" fill="#636466"/></g><g id="aa96f7a7-c4d7-4987-9ac0-9851d1008c04" data-name="Layer 21"><path d="M265.31,403.91c.52,4.45.25,8.92.82,13.35a78.51,78.51,0,0,1,.67,10.4" transform="translate(-0.25)" fill="none" stroke="#77787b" stroke-width="0.25"/><path d="M267.62,404.08c.18,8,2.35,15.48,1.81,23.58" transform="translate(-0.25)" fill="none" stroke="#77787b" stroke-width="0.25"/><path d="M275.7,428.16c.16-.75-.22-.93-.33-1.83-.32-2.77.07-5.34,0-8.12s-.06-5.8,0-8.71c0-1,.18-3.54-.63-4.1" transform="translate(-0.25)" fill="none" stroke="#77787b" stroke-width="0.25"/><path d="M280.32,404.9c-.19,5.58-.34,11.24-.33,16.84,0,2.23.74,5.25-.33,7.24" transform="translate(-0.25)" fill="none" stroke="#77787b" stroke-width="0.25"/><path d="M272.4,404.41c.82,1.84.2,4.62.3,6.61.11,2.3,0,4.63,0,6.94,0,3.53.88,6.7.66,10.2" transform="translate(-0.25)" fill="none" stroke="#77787b" stroke-width="0.25"/><path d="M282.3,405.4c.5,2.64-.14,5.15-.39,7.76s-.26,5.31-.28,7.91.46,6.4.17,8.57" transform="translate(-0.25)" fill="none" stroke="#77787b" stroke-width="0.25"/><path d="M286.91,406.06c-.45,1.28-.51,4.77-.67,6.6a72.44,72.44,0,0,0-.19,9.08c.1,2.62.49,5.48,0,8.07" transform="translate(-0.25)" fill="none" stroke="#77787b" stroke-width="0.25"/><path d="M288.89,405.73c-1.44,5.84-.06,12.56.17,18.52.07,1.83-.81,4.57.16,6.22" transform="translate(-0.25)" fill="none" stroke="#77787b" stroke-width="0.25"/><path d="M293.68,406.72c1.16,2.12,1.26,6.22,1.27,8.76,0,2.94.53,5.82.83,8.75a42.85,42.85,0,0,1,.33,5.88c0,.79-.25.45,0,1.18" transform="translate(-0.25)" fill="none" stroke="#77787b" stroke-width="0.25"/><path d="M291.53,406.39a69.52,69.52,0,0,0,1.79,7.63c1,2.77.35,5.85.48,8.73.17,3.41-.95,5.1-.12,8.37" transform="translate(-0.25)" fill="none" stroke="#77787b" stroke-width="0.25"/><path d="M308,407.54c-.72,2.09-.1,4.89,0,7.06.1,3.14-.4,6.25-.3,9.4.1,3.66.68,5,1.05,8.55" transform="translate(-0.25)" fill="none" stroke="#77787b" stroke-width="0.25"/><path d="M311,407.38c-1.23,6.15-1,12.6-.49,18.79a28,28,0,0,0,1,6.11" transform="translate(-0.25)" fill="none" stroke="#77787b" stroke-width="0.25"/><path d="M314.29,408.37c0,2.91-.63,5.79-.5,8.74s.68,6,1,9.07-.67,3.5.3,6" transform="translate(-0.25)" fill="none" stroke="#77787b" stroke-width="0.25"/><path d="M320.42,408.69c-.17-.93-.34,1.5-.35,1.52A30.86,30.86,0,0,0,320,418c.32,3.2.11,6.44.29,9.65.13,2.58.38,2.15,1,5.06" transform="translate(-0.25)" fill="none" stroke="#77787b" stroke-width="0.25"/><path d="M324,410c-1.4,1.26-.78,7.79-.53,9.77a66.84,66.84,0,0,1,.35,10c-.05,1.88-.14,1.31-.12,2.82" transform="translate(-0.25)" fill="none" stroke="#77787b" stroke-width="0.25"/><path d="M327.5,410.18c.49.91.24,2.25.22,3.27a66.47,66.47,0,0,0,.62,6.62c.26,3.19.92,6.69.69,9.88" transform="translate(-0.25)" fill="none" stroke="#77787b" stroke-width="0.25"/><path d="M330,410.35c1.36,2.85.51,6.81.49,10.23s.22,6.85.13,10.23c0,1.67.37,1.14,0,2.79" transform="translate(-0.25)" fill="none" stroke="#77787b" stroke-width="0.25"/><path d="M334.8,411.49c-.22-.14,0-.41-.56-.19-.6,2.64.43,5.47.85,8.11a46.72,46.72,0,0,1,.13,9.08c-.1,2.83-.08,2.84-.1,5.66" transform="translate(-0.25)" fill="none" stroke="#77787b" stroke-width="0.25"/><path d="M337.05,411c.83,3.33.16,7.72.16,11.16,0,2.72-.16,5.56-.13,8.16" transform="translate(-0.25)" fill="none" stroke="#77787b" stroke-width="0.25"/><path d="M264.48,407.54c4.47.28,9-.07,13.5-.22,2.58-.09,5.15-.18,7.72-.22a34.15,34.15,0,0,1,5.16.11c.44.05,1-.57.35-.65a32.19,32.19,0,0,0-4.91-.11c-2.54,0-5.07.12-7.61.2-4.59.15-9.27.53-13.86.24-.44,0-1,.6-.35.65Z" transform="translate(-0.25)" fill="#8a8c8e"/><path d="M265.33,409.9c9.36.81,18.76.67,28.14.67.3,0,1-.44.41-.44-9.32,0-18.64.14-27.93-.66-.24,0-1.11.39-.62.43Z" transform="translate(-0.25)" fill="#8a8c8e"/><path d="M265.18,412.59c4.31,1,8.78.81,13.17.8,2.37,0,4.74.11,7.11.07,2.62,0,5.24-.19,7.86-.2.38,0,1-.56.38-.56-2.63,0-5.25.15-7.87.2-2.23,0-4.46-.07-6.69-.07-4.46,0-9,.21-13.37-.77-.32-.07-1.14.41-.59.53Z" transform="translate(-0.25)" fill="#8a8c8e"/><path d="M265.35,416.28c3.63,1.57,8.21,1.11,12,1,5.41-.17,10.89-.51,16.29-.3.21,0,1.1-.37.63-.39-5.05-.2-10.17.09-15.22.26-2.29.08-4.59.16-6.88.08a16.28,16.28,0,0,1-6-1c-.26-.11-1,.29-.91.33Z" transform="translate(-0.25)" fill="#8a8c8e"/><path d="M265.65,420.7c.38.59,2,.51,2.61.55,2,.14,4,.15,6.06.16,5.09,0,10.19-.11,15.29-.13a38.47,38.47,0,0,1,5.15.12c.22,0,1-.32.8-.35-3.48-.46-7.18-.12-10.68-.08-4.79.06-9.6.18-14.39,0-.9,0-1.8-.07-2.69-.19-.29,0-1,0-1.18-.34s-1,.17-1,.26Z" transform="translate(-0.25)" fill="#8a8c8e"/><path d="M265.76,424.06c9.91-.3,19.78,1.12,29.69.5.25,0,1.05-.43.41-.39-9.9.62-19.78-.8-29.68-.5-.26,0-1.05.41-.42.39Z" transform="translate(-0.25)" fill="#8a8c8e"/><path d="M270.46,427.81c3.78-1.17,8,0,11.82.08,2.05.06,4.11-.12,6.17-.16,2.35,0,4.7,0,7.06,0,.2,0,1.09-.39.62-.39-2.59,0-5.19,0-7.78.06-2.2.05-4.4.22-6.6.08-3.75-.24-7.69-1.06-11.37.08-.54.17-.48.46.08.29Z" transform="translate(-0.25)" fill="#8a8c8e"/><path d="M308.11,410.06c2.87-.62,5.78-.16,8.68,0a1,1,0,0,0,.68-.19c.12-.11.15-.23-.07-.25-3-.17-6.11-.64-9.13,0-.12,0-.55.11-.56.29s.28.15.4.13Z" transform="translate(-0.25)" fill="#8a8c8e"/><path d="M308,415.34c3.37.21,6.9.09,10.14,1.14a1,1,0,0,0,.68-.11c.1-.06.33-.22.11-.29-3.3-1.07-6.88-1-10.31-1.17a1,1,0,0,0-.68.19c-.12.11-.15.23.06.24Z" transform="translate(-0.25)" fill="#8a8c8e"/><path d="M308.07,418c.25.41,1.15.44,1.55.49,1,.13,2.07.18,3.1.22,2,.07,4,.08,6,.08.53,0,.75-.67.09-.67-1.83,0-3.66,0-5.49-.08-1,0-2-.08-3-.18a6.74,6.74,0,0,1-1-.14l-.33-.09c-.07,0,0,0-.06,0-.21-.35-1.14,0-.89.41Z" transform="translate(-0.25)" fill="#8a8c8e"/><path d="M308.23,421.5a9.37,9.37,0,0,1,4.55-.52c1.59.07,3.17.25,4.76.26.54,0,.75-.68.09-.68-1.68,0-3.36-.23-5.05-.28a9.94,9.94,0,0,0-4.77.68c-.58.3-.06.79.42.54Z" transform="translate(-0.25)" fill="#8a8c8e"/><path d="M308.17,423.73a.33.33,0,0,1,.17-.09l.26-.06a8.33,8.33,0,0,1,.86-.08c.81,0,1.63,0,2.44.06,1.5.09,3,.29,4.52.3.22,0,.54-.06.64-.28s-.08-.36-.29-.36c-1.65,0-3.3-.24-4.95-.32a19.73,19.73,0,0,0-2.55,0,3.12,3.12,0,0,0-1.72.47c-.52.4.27.65.62.38Z" transform="translate(-0.25)" fill="#8a8c8e"/><path d="M308.33,425.6a1,1,0,0,1-.49.23h0c-.06,0-.08,0,0,0l.33,0,.86,0,2.56,0,4.65,0a1.16,1.16,0,0,0,.68-.18c.12-.1.16-.21-.06-.21-2.74,0-5.49-.05-8.22.1-.3,0-1.18,0-1.31.35-.06.17.87.07.95-.17Z" transform="translate(-0.25)" fill="#8a8c8e"/><path d="M308.18,428.89a3.36,3.36,0,0,1,1.64-.39,16.14,16.14,0,0,1,2.41,0c1.55.1,3.1.32,4.66.33.57,0,.73-.75.08-.75-1.68,0-3.36-.28-5-.36-1.43-.07-3.16-.18-4.41.66a.33.33,0,0,0,0,.53.6.6,0,0,0,.69-.05Z" transform="translate(-0.25)" fill="#8a8c8e"/><path d="M307.84,431.31a17.18,17.18,0,0,1,9-.81c.5.1,1-.61.33-.73a18.3,18.3,0,0,0-9.5.84c-.57.2-.4.91.19.7Z" transform="translate(-0.25)" fill="#8a8c8e"/><path d="M322.69,413.45c5.55.19,11.14,1.15,16.69.33.49-.07.78-.7.12-.6-5.47.81-11-.15-16.45-.33-.41,0-1,.58-.36.6Z" transform="translate(-0.25)" fill="#8a8c8e"/><path d="M308.06,412.61c3.25.54,6.73,1,9.93,0,.16-.05.47-.19.41-.4s-.41-.19-.55-.15c-3,1-6.2.49-9.21,0a.77.77,0,0,0-.68.18c-.12.15-.13.35.1.39Z" transform="translate(-0.25)" fill="#8a8c8e"/><path d="M321.81,415.64c5.47,1,11.2.67,16.74.67.2,0,1.09-.39.63-.39-5.48,0-11.16.36-16.58-.65-.22,0-1.05.32-.79.37Z" transform="translate(-0.25)" fill="#8a8c8e"/><path d="M322,419.8c5.15,0,10.37-1.16,15.48-.19a1,1,0,0,0,.68-.11c.06-.05.34-.24.11-.28-5.26-1-10.58.12-15.86.14-.29,0-1.05.44-.41.44Z" transform="translate(-0.25)" fill="#8a8c8e"/><path d="M321.19,421.76c5.49.54,11.08-.61,16.55.22.3,0,1.13-.43.59-.51-5.54-.85-11.19.3-16.76-.25-.37,0-1,.47-.38.54Z" transform="translate(-0.25)" fill="#8a8c8e"/><path d="M320.12,424.91c5.36-1.25,11.15-.33,16.57,0,.35,0,1-.47.38-.52-5.61-.38-11.51-1.26-17.07,0-.58.14-.46.58.12.44Z" transform="translate(-0.25)" fill="#8a8c8e"/><path d="M319.82,427.07c5.48-.8,11-.49,16.54-.32.33,0,1-.47.39-.49-5.59-.17-11.22-.48-16.78.34-.44.07-.82.57-.15.47Z" transform="translate(-0.25)" fill="#8a8c8e"/><path d="M319.72,429.46c5.88,0,11.77-.66,17.65-.16.42,0,1-.58.35-.64-5.88-.49-11.77.16-17.65.17-.41,0-1,.63-.35.63Z" transform="translate(-0.25)" fill="#8a8c8e"/><path d="M320.56,432.14c2.81.22,5.64,0,8.45.23,2.55.21,5.29.86,7.8.08.58-.18.41-.86-.18-.67-2.49.77-5.23,0-7.76-.16s-5.32,0-8-.19c-.48,0-1,.66-.33.71Z" transform="translate(-0.25)" fill="#8a8c8e"/><path d="M263.58,407.06c5,.54,10.06,0,15.07-.16.28,0,.37-.38,0-.36-5,.18-10,.69-14.95.16-.24,0-.49.33-.16.36Z" transform="translate(-0.25)" fill="#cecece"/><path d="M265.29,409.38c9.68.17,19.35.33,29,.33.28,0,.36-.38,0-.38-9.67,0-19.35-.16-29-.33-.28,0-.36.37,0,.38Z" transform="translate(-0.25)" fill="#cecece"/><path d="M264.68,411.82c4.12,1.15,8.5.9,12.74.84,5.19-.06,10.38,0,15.57,0,.28,0,.38-.34.05-.34-4.9,0-9.79-.12-14.69,0-4.43.1-9.08.4-13.39-.79-.2-.06-.57.23-.28.31Z" transform="translate(-0.25)" fill="#cecece"/><path d="M266.32,415.42c9.05,1.27,18.18.5,27.26,0,.16,0,.51-.27.19-.25-9,.5-18.13,1.27-27.15,0-.14,0-.57.21-.3.25Z" transform="translate(-0.25)" fill="#cecece"/><path d="M264.75,419.33c4,2.48,9.29.72,13.6.51,5.36-.27,11.22-1.11,16.45.49.1,0,.52-.14.39-.18-5-1.52-10.42-.78-15.52-.54-2.18.1-4.33.4-6.5.61-2.64.26-5.61.42-8-1.05-.11-.07-.51.13-.46.16Z" transform="translate(-0.25)" fill="#cecece"/><path d="M266.31,423.14c9.38.32,18.83-.33,28.16,1,.11,0,.52-.17.39-.19-9.35-1.33-18.83-.67-28.24-1-.1,0-.55.18-.31.19Z" transform="translate(-0.25)" fill="#cecece"/><path d="M268.51,426.13c4.57-.13,9.12.45,13.69.49,4.27,0,8.54-.65,12.81-.16.13,0,.56-.2.3-.23-4.14-.48-8.27.15-12.42.16-4.73,0-9.44-.63-14.18-.5-.16,0-.52.25-.2.24Z" transform="translate(-0.25)" fill="#cecece"/><path d="M310.23,412.43c4.24-.12,8.3,1.06,12.48,1.48s8.24.33,12.33,1c.11,0,.53-.17.39-.19-4.11-.66-8.27-.58-12.41-1s-8.31-1.61-12.58-1.49c-.14,0-.53.22-.21.21Z" transform="translate(-0.25)" fill="#cecece"/><path d="M310.54,415.11a12,12,0,0,1,5.72.18c1.79.38,3.55.88,5.36,1.15.22,0,.5-.27.18-.32-3.68-.54-7.6-2.37-11.34-1.3-.29.08-.22.37.08.29Z" transform="translate(-0.25)" fill="#cecece"/><path d="M314.19,419.05c7.23,0,14.55-.37,21.72.82.14,0,.56-.21.3-.25-7.2-1.2-14.56-.83-21.82-.83-.17,0-.52.26-.2.26Z" transform="translate(-0.25)" fill="#cecece"/><path d="M311.47,422.9c5.86,0,11.81-.2,17.58,1,.25.05.48-.31.16-.37-5.8-1.21-11.81-1-17.71-1-.28,0-.36.38,0,.38Z" transform="translate(-0.25)" fill="#cecece"/><path d="M313.54,427c6.43,0,12.73,1.47,19.13,2,.18,0,.51-.24.18-.27-6.39-.51-12.69-1.95-19.12-2-.18,0-.52.27-.19.27Z" transform="translate(-0.25)" fill="#cecece"/><path d="M316.13,431.4c7.05-2.13,14.32,1.6,21.44,0,.29-.07.23-.29-.06-.22-7.12,1.6-14.36-2.14-21.44,0-.28.08-.22.31.06.22Z" transform="translate(-0.25)" fill="#cecece"/></g><g id="ae90a697-7408-4255-9c36-293d0b56e91b" data-name="Layer 14"><path d="M691.61,379c1.74,6,2.34,12.15,4,18.43,2.62,9.63,14.75,20,6.75,35" transform="translate(-0.25)" fill="none" stroke="#000" stroke-width="2"/><path d="M54.52,222.82c0,.54-.77,1.07-1.19,1.38a24.94,24.94,0,0,1-3.34,2c-3.56,1.88-7.25,3.52-10.9,5.2-9.29,4.27-18.69,8.53-27.23,14.18C8,248.16,4,251.11,1.28,255c-.43.61,1.46.37,1.77-.06a36.08,36.08,0,0,1,9.41-8.56A121.67,121.67,0,0,1,26,238.57c8.31-4.21,17-7.67,25.24-12a26.68,26.68,0,0,0,3.8-2.3c.6-.47,1.41-1.1,1.43-1.93,0-.42-1.9-.13-1.93.51Z" transform="translate(-0.25)" fill="#231f20"/><path d="M351.25,407.37a187.68,187.68,0,0,0-4.78,19.31c-1.53,7.22-2.94,14.47-4.15,21.76-.44,2.6-.89,5.22-1.13,7.85-.08.87,1.87.55,1.94-.2.52-5.62,1.67-11.21,2.72-16.75,1.41-7.52,2.94-15,4.72-22.47.78-3.25,1.58-6.52,2.62-9.7.25-.77-1.71-.53-1.94.2Z" transform="translate(-0.25)"/><path d="M371.37,411.15c1.33,2.74,1.54,6,1.59,9a53.46,53.46,0,0,1-.71,9.79c-.11.71,1.83.38,1.93-.25a56.21,56.21,0,0,0,.72-9.78c0-3.08-.23-6.45-1.6-9.26-.3-.64-2.19,0-1.93.51Z" transform="translate(-0.25)"/></g><g id="f5b8a2c8-f37e-4b76-9206-f50efbcfedfb" data-name="bottom structures"><path d="M423.35,418.81c.44.44.88.44,1.32,1.32-1.76.44-4,2.2-6.16,2.2.44.88.88,2.2,1.32,3.08-1.32,0-3.08,1.32-4.39,1.76l3.95,1.32c-1.76.43-7,1.32-8.79,1.75,14.95,1.76,28.14,4.4,42.66,7.48C475.68,442.56,644.11,479.5,663,479.5c-12.75-8.36-33.42-9.68-47.93-13.19-22-5.28-41.78-14.07-63.33-19.79-30.78-8.8-59.8-19.79-91-26.83-11.43-2.2-25.94-1.76-37.38-3.52,0,.44.88,2.64.88,3.08" transform="translate(-0.25)" fill="#1b120d"/><path d="M422.61,419.39a4.42,4.42,0,0,1,1.18,1.18l.69-1.14c-2,.58-3.76,2.06-5.89,2.16-.37,0-1.3.45-1,1,.48,1,.84,2.07,1.32,3.08l1-1c-1.75.12-3.07,1.22-4.66,1.81-.54.2-1.28,1.07-.36,1.37l3.95,1.32.37-1.37c-2.91.7-5.89,1-8.8,1.76-.78.18-1.17,1.31-.14,1.43,14.8,1.75,29.42,4.61,44,7.76l13.18,2.86,20.6,4.46,25.9,5.56q14.52,3.09,29.05,6.16,15,3.17,30.08,6.26,14.48,3,29,5.87,12.9,2.56,25.84,5c6.76,1.26,13.53,2.49,20.33,3.58,4.24.68,8.52,1.39,12.81,1.68.65,0,1.29.08,1.94.08s1.56-.83.81-1.32c-5.62-3.64-12.07-5.76-18.54-7.38-6.89-1.72-13.9-2.84-20.88-4.12-16.09-3-31.49-8.43-46.94-13.72-16.46-5.65-33.27-10.14-49.86-15.39S494.2,427.53,477.27,423c-8-2.14-16-4.31-24.2-5.15-8-.81-16-.94-23.93-1.72q-2.75-.27-5.46-.67c-.61-.09-1.36.31-1.29,1,.1,1.06.77,2,.87,3.08s2,.45,1.94-.52-.77-2-.88-3.08l-1.29,1c7.71,1.16,15.54,1.35,23.32,1.88,3.83.27,7.67.6,11.47,1.19,4.22.65,8.38,1.77,12.51,2.82,16.92,4.3,33.53,9.67,50.16,15,8.35,2.66,16.71,5.31,25.11,7.79,8.19,2.42,16.4,4.68,24.51,7.39,15.76,5.26,31.38,11.3,47.68,14.78,13.43,2.86,27.73,3.89,40.25,9.95a40.08,40.08,0,0,1,4.24,2.39l.82-1.31c-.62,0-.84,0-1.63-.08s-1.64-.14-2.46-.23c-2.19-.24-4.37-.55-6.55-.88-6.26-.93-12.5-2-18.72-3.17q-12.36-2.25-24.67-4.7-14.22-2.79-28.4-5.7-15-3.06-29.87-6.19-14.76-3.09-29.5-6.23-13.42-2.85-26.84-5.74l-22-4.75-15.19-3.3c-11.17-2.42-22.38-4.75-33.68-6.53q-6.33-1-12.7-1.75l-.14,1.43c2.91-.7,5.89-1.05,8.8-1.76.6-.14,1.22-1.08.36-1.37L416,426.49l-.37,1.38c1.34-.5,2.7-1.62,4.14-1.72.36,0,1.31-.45,1-1-.48-1-.84-2.07-1.32-3.08l-1,1c2.39-.11,4.19-1.6,6.42-2.24.48-.14,1-.6.69-1.13a5.48,5.48,0,0,0-1.46-1.46c-.69-.6-2.34.4-1.48,1.15Z" transform="translate(-0.25)" fill="#1b120d"/><path d="M427.31,404.74c16.71,11.43,239.24,82.21,242.31,73,1.76-5.28,13.63-11,25.51-9.24-7-4.83.89-11.05,7.47-11.87-27.26-13.63-49.25-14.07-73.88-27.26" transform="translate(-0.25)" fill="#1b120d"/><path d="M426.57,405.32c3.42,2.32,7.56,3.79,11.36,5.33,7.13,2.9,14.35,5.55,21.59,8.15,9.69,3.48,19.42,6.83,29.17,10.12q16.92,5.7,33.93,11.15,17.91,5.76,35.88,11.28,17.46,5.36,35,10.47c10.42,3,20.86,6,31.34,8.75,8.26,2.2,16.55,4.32,24.91,6.13a96.33,96.33,0,0,0,15.63,2.57,8.73,8.73,0,0,0,4.12-.42,2.16,2.16,0,0,0,1.12-1.2c1.63-3.43,5.36-5.42,8.78-6.72a31.39,31.39,0,0,1,15.39-1.69c.6.08,1.91-.7,1.07-1.31-2.47-1.77-3.34-4.26-1.19-6.68a13.16,13.16,0,0,1,7.85-3.88c.7-.1,1.59-.94.62-1.42a187.72,187.72,0,0,0-29.9-11.45c-9.33-2.79-18.77-5.26-27.91-8.64a131.15,131.15,0,0,1-16.07-7.17c-.83-.44-2.19.77-1.1,1.35a153.48,153.48,0,0,0,28,11.14c9.49,2.87,19.09,5.38,28.43,8.73a159.83,159.83,0,0,1,17.43,7.4l.63-1.42c-3.61.5-7.49,2.09-9.84,5s-1.38,6.11,1.55,8.21l1.06-1.31a34.06,34.06,0,0,0-15,1.29c-3.68,1.18-7.53,3-10.13,5.95a7.39,7.39,0,0,0-1.62,2.68c0-.06.14-.1.13-.13s-.4.13-.12.07-.13,0-.2.06a1.26,1.26,0,0,1-.52.08,23,23,0,0,1-4.86-.23c-2.63-.32-5.24-.8-7.84-1.31-7.64-1.49-15.22-3.36-22.75-5.3-10-2.58-20-5.34-29.94-8.18q-17.17-4.89-34.25-10.1-18-5.46-35.93-11.17-17.31-5.49-34.54-11.22c-10.19-3.4-20.36-6.85-30.5-10.42-7.93-2.8-15.84-5.65-23.68-8.7a130,130,0,0,1-14.09-6.07c-.28-.15-1.06-.6-1.52-.91-.75-.51-2.41.52-1.48,1.16Z" transform="translate(-0.25)" fill="#1b120d"/><path d="M23.61,272.37c10.55.44,15-.44,24.18,5.28,22.87,13.19,49.7,30.34,69.93,47.05-21.55-8.35-45.3-18-66.41-26.82-10.55-4.4-22.43-12.32-32.54-17.59-6.16-2.64-13.63-7.92-16.71-13.64C2.06,266.65,16.57,271.93,23.61,272.37Z" transform="translate(-0.25)" fill="#533b15"/><path d="M23.26,273c5.7.23,11.63-.14,17.09,1.81a54.2,54.2,0,0,1,8.85,4.59c3.13,1.83,6.26,3.67,9.37,5.55,13.14,7.9,26.06,16.21,38.55,25.11,6.77,4.83,13.42,9.85,19.84,15.15l1.32-1.16c-16.72-6.48-33.35-13.19-49.94-20-7.91-3.25-16-6.26-23.62-10.19s-14.61-8.33-22-12.39c-3.73-2.06-7.62-3.72-11.12-6.19a28.48,28.48,0,0,1-8.69-9.06l-1.45,1c2.73,1,5.5,1.9,8.28,2.74,4.37,1.33,8.92,2.71,13.49,3,.89.06,2-1.23.69-1.32-4.53-.32-9-1.71-13.34-3-2.68-.82-5.35-1.69-8-2.65-.56-.2-1.87.28-1.45,1,3.62,6.55,10.44,10.64,17,13.81,7.56,3.69,14.62,8.42,22,12.43s15.36,7.17,23.22,10.41Q76,308.92,88.61,314q14.24,5.75,28.54,11.3c.6.24,2.13-.48,1.32-1.15a416.6,416.6,0,0,0-37-26.85q-9.73-6.37-19.71-12.4c-3.18-1.93-6.39-3.83-9.6-5.71a86,86,0,0,0-9-4.94c-6.11-2.65-12.72-2.3-19.23-2.56-.41,0-1.1.12-1.26.57A.55.55,0,0,0,23.26,273Z" transform="translate(-0.25)" fill="#533b15"/><path d="M198.63,392c2.2,3.07,1.32,11.43,2.2,15.83,13.19-9.68,35.62-4.84,50.57-11-10.55-1.76-21.11-2.63-31.66-4.39-7-1.32-17.48-2.42-24.52-5.5a32.14,32.14,0,0,0,4.29,7.7Z" transform="translate(-0.25)" fill="#341f10"/><path d="M197.67,392.25c1.4,2.08,1.46,5,1.59,7.42a63.91,63.91,0,0,0,.6,8.41c.1.51,1.5,0,1.72-.2,5.49-4,12.3-5.25,18.9-6,6.93-.79,13.92-.95,20.81-2a47.71,47.71,0,0,0,10.46-2.75c.35-.14,1-.59.27-.71-15.08-2.5-30.34-3.73-45.34-6.77A54.1,54.1,0,0,1,196,386.53c-.31-.14-1.9.13-1.75.66a19.8,19.8,0,0,0,2.05,4.31A18.78,18.78,0,0,0,198.6,395c.29.31,2-.12,1.88-.6l-.88-2.64c-.17-.52-2.09,0-1.93.52l.88,2.63,1.87-.6a17.69,17.69,0,0,1-2.33-3.57,18.4,18.4,0,0,1-1.9-4l-1.75.66c6.07,2.61,12.77,3.56,19.25,4.61,7.57,1.22,15.12,2.35,22.73,3.3,4.8.6,9.59,1.23,14.37,2l.26-.71c-6.48,2.63-13.62,3.11-20.52,3.65s-14,1-20.71,2.94a32,32,0,0,0-9.74,4.61l1.72-.19a63.92,63.92,0,0,1-.61-8.41c-.13-2.42-.19-5.34-1.59-7.42C199.25,391.21,197.46,391.94,197.67,392.25Z" transform="translate(-0.25)" fill="#341f10"/><path d="M586.06,433.32c2.62,1.75,83.52,23.77,107.75,35.62-14.08.88-29.45,3.91-22.43,6.6-12.31-1.32-32.1-7-44.42-10.55-15.83-4.4-31.22-9.24-47.49-13.64-17.59-4.39-55.85-13.63-72.12-24.18" transform="translate(-0.25)" fill="#341f10"/><path d="M585.16,433.67a13.53,13.53,0,0,0,3,1.12c2.17.7,4.36,1.37,6.55,2,7.07,2.15,14.15,4.23,21.22,6.35,18.18,5.45,36.37,10.95,54.3,17.19a208.1,208.1,0,0,1,22.81,9l1.19-.85c-6.83.44-13.88,1.07-20.49,2.93-1.48.42-3.74.92-4.76,2.22s.7,1.93,1.63,2.3l1.4-.85c-11.34-1.24-22.51-4.43-33.47-7.47-12.57-3.49-25.08-7.15-37.6-10.82-10.89-3.19-21.82-6.1-32.82-8.92-10.1-2.58-20.17-5.31-30.1-8.5-10.14-3.26-20.73-6.76-29.75-12.57-.49-.32-2.17.46-1.81.69,7.81,5,16.82,8.28,25.58,11.24,10.19,3.45,20.56,6.34,31,9.05s21,5.38,31.49,8.4c13,3.78,26,7.61,39,11.29,12.18,3.43,24.61,7.11,37.24,8.49.3,0,2.13-.55,1.39-.85s-2.14-.89-1.25-1.75c1.1-1.06,3.39-1.35,4.8-1.68a109.69,109.69,0,0,1,17.69-2.31c.23,0,1.92-.5,1.19-.85a190.29,190.29,0,0,0-19.81-7.94c-8.78-3.12-17.63-6-26.51-8.81-16.53-5.22-33.15-10.1-49.74-15.1-2.71-.81-5.41-1.62-8.09-2.48-.8-.26-1.6-.52-2.39-.8A11.41,11.41,0,0,1,587,433c-.49-.32-2.17.46-1.81.69Z" transform="translate(-0.25)" fill="#341f10"/><path d="M593.1,443.88c16.27,4.84,31.66,10.11,47.93,13.63,7.92,2.2,26,10.12,33.87,7.92,3.51-.88,6.15-7.48,10.55-10.56A37.74,37.74,0,0,1,697.76,450c-23.74-13.2-55.41-15-81.79-18-18.91-2.19-38.26-7.47-57.17-7.91-7,0-18.91-2.2-25.07,1.76C535.49,426.29,575.07,439,593.1,443.88Z" transform="translate(-0.25)" fill="#533b15"/><path d="M592.32,444.31c9.16,2.73,18.26,5.66,27.43,8.34,4.44,1.29,8.9,2.52,13.39,3.64,3.53.88,7.09,1.57,10.55,2.73,6,2,11.92,4.25,18.06,5.82a42.34,42.34,0,0,0,8.8,1.45c2.3.08,4.8-.14,6.7-1.55,2.82-2.08,4.5-5.46,6.91-8,3.36-3.51,8.8-5.31,13.46-6.27.28-.06,1.61-.53.92-.91-19.23-10.62-41.73-13.62-63.24-16-11.38-1.27-22.75-2.4-34-4.34-12.41-2.13-24.79-4.67-37.37-5.44-2.84-.18-5.68-.18-8.52-.35-2.65-.15-5.3-.37-8-.44-4.76-.13-10.1,0-14.27,2.6-.17.11-.67.55-.19.67,5.36,1.38,10.64,3.32,15.92,5,9.67,3,19.34,6,29,8.93,4.78,1.42,9.57,2.83,14.39,4.12a1.75,1.75,0,0,0,1.36-.2c.18-.11.66-.54.2-.67-17.94-4.82-35.63-10.6-53.35-16.17-2-.62-4-1.34-6-1.86l-.19.67c3.78-2.36,8.76-2.21,13-2.06,4.62.17,9.24.44,13.85.66,12.36.59,24.54,3,36.7,5.15,11.13,1.95,22.29,3.19,33.52,4.41,10.71,1.17,21.42,2.47,32,4.63,11.62,2.38,23.14,5.84,33.57,11.6l.92-.91a40.94,40.94,0,0,0-11.59,4.23c-3,1.68-5.08,4.21-7.16,6.93a22.18,22.18,0,0,1-3,3.47,4.88,4.88,0,0,1-3,1.09,28.22,28.22,0,0,1-8.23-.94c-6.24-1.41-12.25-3.68-18.3-5.75a89.57,89.57,0,0,0-8.7-2.41c-4.55-1.06-9.06-2.26-13.56-3.54-10.19-2.9-20.27-6.17-30.42-9.2a1.71,1.71,0,0,0-1.36.21C592.33,443.77,591.86,444.18,592.32,444.31Z" transform="translate(-0.25)" fill="#533b15"/><path d="M416.36,429.13l13.1,2.54,19.71,3.84,24.8,4.85,28.34,5.54,30.34,6q15.35,3,30.68,6.06,14.88,2.94,29.77,5.92l27.18,5.46q11.54,2.32,23.05,4.7c5.81,1.2,11.61,2.41,17.4,3.67l3.22.7c.25.06,1.1-.33.79-.4q-7.87-1.74-15.77-3.36-10.9-2.28-21.81-4.48-13.15-2.67-26.31-5.3-14.64-2.94-29.28-5.84l-30.71-6.07-30.45-6-29-5.68-25.8-5-21.1-4.12-14.87-2.89-2.51-.49c-.25,0-1.09.35-.79.41Z" transform="translate(-0.25)" fill="#533b15"/><path d="M419.8,425.54a9.63,9.63,0,0,1,1.77.19c1.35.2,2.69.43,4,.67,4.55.79,9.09,1.66,13.63,2.53q9.79,1.89,19.59,3.83,12,2.39,24.09,4.81L509.77,443l27.94,5.67,27.37,5.57,25.14,5.11,21.14,4.28q7.85,1.59,15.71,3.15l2.82.55c.15,0,.57-.2.3-.25q-7.1-1.4-14.17-2.82L596,460.18l-24.49-5-27-5.49L516.37,444,489,438.47l-24.84-5q-10.44-2.07-20.89-4.1c-5-1-10.07-1.95-15.12-2.86-2.52-.45-5.07-1-7.63-1.24a3.43,3.43,0,0,0-.64,0c-.23,0-.41.28-.07.26Z" transform="translate(-0.25)" fill="#c29435"/></g><g id="fb2f1567-404a-4596-9e22-c1dcef3bb8ed" data-name="bottom copper light"><path d="M19.71,277c10.42,5.21,21,10.15,31.49,15.19,13.68,6.57,27.38,13.12,41,19.83,3.83,1.89,7.85,3.64,11.5,5.88.32.19,1.19-.25.76-.51-3-1.86-6.38-3.35-9.58-4.93-6.13-3-12.29-6-18.45-9-14-6.76-28-13.45-42-20.18-4.67-2.25-9.36-4.47-14-6.79-.33-.16-1.2.29-.76.51Z" transform="translate(-0.25)" fill="#c29435"/></g><g id="a44b3d20-fdda-435d-832e-d7d7225ced65" data-name="sunshield"><path d="M38.56,254.78H.74c15,11.43,61.57,47.49,78.28,56.29C100.13,321.62,182.8,385,203,400.78c29.9-3.52,313.94,31.68,370.28,34.3,37.82,1.76,73,7,109.94,15-1.76-13.2,10.55-15.84,20.23-17.6-8.79-3.51-20.23-7-27.26-12.31" transform="translate(-0.25)" fill="#999"/><path d="M38.6,254.44H.79c-.28,0-.76.36-.43.61,21.67,16.58,43.21,33.48,65.9,48.66,7.32,4.89,15.13,8.87,22.54,13.61,10,6.38,19.66,13.26,29.28,20.17,22.47,16.14,44.57,32.8,66.53,49.62l12,9.23c2,1.54,4.59,4.55,7.09,4.71,4.47.28,9.1-.16,13.6,0,17.28.72,34.52,2.31,51.74,3.87,24.46,2.23,48.89,4.72,73.32,7.26q40.74,4.23,81.47,8.64,37.9,4.06,75.83,8c19.16,2,38.33,3.92,57.53,5.47,8,.65,16.08,1,24.12,1.52a626.35,626.35,0,0,1,67.45,7.88c11.45,1.95,22.86,4.18,34.22,6.61.29.06.81-.06.77-.44-1.33-12.25,10.06-15.36,19.83-17.15.31-.06.59-.47.19-.63-9.18-3.64-19.09-6.41-27.17-12.27-.33-.24-1.18.23-.75.54,5.11,3.7,11,6.11,16.86,8.36,1.61.62,3.24,1.23,4.86,1.83,1,.38,4.1,1,4.65,1.78.13.18.67-.3-.32,0a18.1,18.1,0,0,1-1.92.38c-1.17.24-2.34.5-3.49.81-8.41,2.27-14.73,7.13-13.71,16.57l.76-.45c-21.8-4.66-43.77-8.58-65.91-11.26-16.54-2-33.09-3-49.7-4-16.8-1.08-33.58-2.79-50.33-4.46-24.08-2.4-48.14-5-72.2-7.52q-40.68-4.35-81.37-8.68c-25.59-2.7-51.18-5.36-76.79-7.82-19.57-1.88-39.15-3.72-58.76-5-6.1-.39-12.22-.74-18.34-.79-1.91,0-3.84.16-5.75.12-2.57-.05-5.17-3.08-7.23-4.67q-30.39-23.53-61.33-46.33c-11-8.07-22-16.07-33.19-23.8-7.45-5.14-14.95-10.33-22.95-14.58C68.94,305.25,59,297.8,49.22,290.69c-12.12-8.77-24.06-17.79-35.95-26.87L1.11,254.51l-.42.61H38.51c.54,0,.75-.68.09-.68Z" transform="translate(-0.25)" fill="#8a8c8e"/><path d="M51.75,246c-9.67,2.64-25.51,0-34.3-4.39,8.79,9.67,21.11,14.07,29.9,22,12.32,11.43,95,72.12,124.9,92.35,22,15.83,38.7,28.14,65.08,31.66,34.3,5.28,359.73,39.58,387,41.34,22,.88,41.34,7,59.81-1.76,8.8-4.4,14.07-.88,22.87-4.4-10.56-4.4-24.63-7-35.18-12.31" transform="translate(-0.25)" fill="#bcbec0"/><path d="M51.7,245.78c-10.79,2.73-24,.38-33.86-4.41-.18-.08-1.08.14-.84.4,6.82,7.31,15.68,11.72,23.83,17.3,3.85,2.62,7.21,5.79,10.81,8.73,8.5,7,17.29,13.57,26.06,20.18Q114,315.36,151.13,341.7c11.25,8,22.54,16,33.89,23.82,15.76,10.89,32.27,19.42,51.42,22.22,11.46,1.68,23,3,34.47,4.3q31.11,3.61,62.26,7,39.12,4.31,78.25,8.47,40.41,4.32,80.81,8.54,35.49,3.7,71,7.31c16.17,1.64,32.33,3.27,48.51,4.77,4,.37,7.94.77,11.92,1,18.18,1.14,38.07,6.24,55.84.15,2.45-.84,4.71-2.07,7.13-3a28.54,28.54,0,0,1,9.22-1.45,35,35,0,0,0,11.33-1.93c.11-.05.48-.28.21-.39-11.52-4.69-24-6.84-35.18-12.31-.25-.12-1.14.26-.78.43,9.61,4.69,20.11,6.94,30.16,10.42a13.32,13.32,0,0,1,3.06,1.12c.81.56,1.82,0,0,1.15a7.86,7.86,0,0,1-2.1.47,59.23,59.23,0,0,1-8.21.62c-4.41.24-7.94,1.55-12,3.27-11.15,4.79-23.37,4.2-35.18,3-7.91-.8-15.79-1.56-23.72-2.11-11.75-.82-23.48-2.13-35.2-3.29q-32.26-3.19-64.52-6.55-39.93-4.12-79.84-8.36-41-4.34-82-8.78-35.37-3.84-70.72-7.81c-15.37-1.74-30.74-3.45-46.07-5.44-9.82-1.27-19.53-2.85-28.85-6.37-17.6-6.64-32.33-18.5-47.66-29.05-24.09-16.57-47.68-33.87-71.17-51.27C86.22,293.37,75,285,64,276.46c-7.58-5.86-14.73-12.7-22.65-18s-16.71-9.82-23.41-17l-.84.39c10.21,4.94,23.64,7.2,34.75,4.39.57-.14.46-.56-.11-.41Z" transform="translate(-0.25)" fill="#939598"/><path d="M59.67,239.83c-7.92,3.52-22-1.63-30.76-3.39,15.83,14.07,164,116.85,189.07,132.68C244.37,371.32,636.62,421,678.85,414c2.69-.44,6.26-3,8.93-4,2.35-.88,7.14-2.18,9.28-3.59,5.1-3.38,1.58-1.54-1.25-3.51-4.37-3-11-5.69-16.08-7.35" transform="translate(-0.25)" fill="#c7c8ca"/><path d="M59.46,239.56c-9.35,3.77-21.1-1.54-30.38-3.46-.31-.06-.89.3-.54.61,5.45,4.82,11.51,9,17.37,13.33q15.89,11.66,32,23,40,28.41,80.42,56.21c19.17,13.23,38.27,26.65,57.87,39.23,3,1.92,7.66,1.57,11.15,2,7,.78,14,1.6,21,2.42q33.35,3.92,66.68,7.87,44,5.17,87.94,10.19,47.61,5.4,95.26,10.47c29.17,3.07,58.36,6,87.58,8.59,22,1.93,43.94,3.79,66,4.67,6.78.28,13.59.5,20.37.23a49.57,49.57,0,0,0,6.33-.52c4.13-.69,7.62-3.52,11.56-4.84a46.83,46.83,0,0,0,6-2.21c.88-.43,3.85-1.71,4-2.7.07-.6.23-.39-.23-.84-.22-.22-1.12-.25-1.35-.31a12.65,12.65,0,0,1-3.42-1.68,69.06,69.06,0,0,0-15-6.6c-.4-.13-1.14.44-.57.63a105.38,105.38,0,0,1,16.3,7.49c.84.44,3,.65,2.68,1.68-.28.84-2.89,1.82-3.6,2.13-1.62.71-3.32,1.22-5,1.78-5,1.66-9.1,4.72-14.41,5.13a167,167,0,0,1-18,.14c-20.56-.6-41.09-2.28-61.58-4-28.11-2.39-56.19-5.16-84.26-8.07q-46.68-4.84-93.32-10.14Q374,387,329.8,381.76q-35.32-4.14-70.63-8.33c-12.93-1.52-25.87-3.15-38.83-4.45-2.15-.21-3.28-1-5.14-2.16-3.4-2.21-6.77-4.46-10.15-6.72q-15.36-10.31-30.6-20.81-39.67-27.19-79-54.9c-20.17-14.2-40.5-28.28-60.07-43.31-2.07-1.59-4.15-3.18-6.1-4.91l-.55.61c9.64,2,21.39,7.25,31.14,3.32.61-.25.07-.74-.42-.54Z" transform="translate(-0.25)" fill="#a7a9ac"/><path d="M89.13,235.43c-14.51,5.28-39.14-.88-51.45-6.16C61.43,246,89.57,259.18,114.2,275c27.26,18.47,54.53,37.82,83.55,53.65,16.71,10.55,34.3,26.39,53.65,28.15,27.27,2.63,53.66,3.51,80.92,6.15,111.7,8.8,347.2,37.38,347.2,37.38,4.39-1.76,13.63-7.26,17.15-9.89-9.68-.88-31.89-12.32-41.56-13.2" transform="translate(-0.25)" fill="#d1d3d4"/><path d="M89,235.28c-8.74,3-18.58,2.13-27.54.56a108.91,108.91,0,0,1-23.34-6.77c-.19-.08-1.07.22-.84.38,27.08,19,57.38,32.68,84.7,51.3,14.2,9.68,28.36,19.42,42.84,28.69,13.94,8.91,28.73,16.52,42.31,26,11.71,8.13,23.76,17.25,37.88,20.61,7.82,1.86,16.21,1.95,24.2,2.56,8.74.65,17.49,1.21,26.23,1.79,24.52,1.61,49,3.75,73.49,6,45.72,4.22,91.37,9.11,137,14.15q61.85,6.83,123.62,14.12,19,2.24,38,4.51l9.45,1.14c2.82.34,3.85-.19,6.71-1.67A101.72,101.72,0,0,0,697,390.49c.15-.11.13-.25-.07-.27-14.51-1.56-27-11.63-41.56-13.19-.24,0-1.11.39-.61.45,5.54.59,10.94,2.86,16.1,4.81,5.92,2.25,11.79,4.69,17.83,6.6,1.91.6,4.2.78,6,1.56,1.34.57,1.23.23-.23,1.22s-3.18,2.06-4.8,3c-2.62,1.57-5.28,3.1-8,4.44a7.94,7.94,0,0,1-2,.95c-1.88.26-4.41-.53-6.27-.75l-13.85-1.66q-55.68-6.65-111.4-12.95c-48.7-5.52-97.42-10.87-146.19-15.7-21.19-2.1-42.39-4.11-63.61-5.84-16.44-1.34-32.87-2.66-49.34-3.74-9.4-.62-18.81-1.25-28.2-2.05-8.67-.73-16.83-1.63-24.87-5.18-14.84-6.55-26.88-17.7-41-25.53C179,317.82,163.66,308,148.51,297.83c-14.59-9.77-28.81-20.17-43.88-29.2S74,251.42,58.94,242.44c-7.09-4.21-14-8.61-20.81-13.34l-.84.38a108.9,108.9,0,0,0,26.46,7.28c8.43,1.24,17.4,1.64,25.56-1.18.64-.23,0-.43-.36-.3Z" transform="translate(-0.25)" fill="#b1b3b6"/><path d="M72.8,232c10.56,3.52,18,1.76,28.59,0a125,125,0,0,0,32.1-10.56c14.08-5.28,18.47-1.76,32.54,2.64,60.69,22,122.26,40.46,184.71,58.93,34.3,10.55,291.12,82.24,342.13,95.43-20.23,12.31-59.81,10.11-83.55,4.83-36.06-7-243.63-32.54-312.24-36.93-24.62-1.76-40.45.88-59.8-15a554.09,554.09,0,0,0-57.17-40.46c-20.23-12.31-39.58-23.3-60.69-34.74-17.59-9.67-43.1-13.63-58-26.82-2.64-1.76-5.28-5.28-7-7.92C54.33,221.41,68.41,230.21,72.8,232Z" transform="translate(-0.25)" fill="#e6e7e8"/><path d="M72.53,232.29a44.45,44.45,0,0,0,20.08,1.46,144.38,144.38,0,0,0,21.88-4.57c7.18-2.16,13.77-5.55,20.8-8.05a30,30,0,0,1,20.14-.18c16.06,5.1,31.83,11.13,47.78,16.54q24.66,8.37,49.5,16.18Q314.1,273.07,376,290.79q48.72,14,97.55,27.58,59.28,16.62,118.62,33c29.86,8.26,59.72,16.53,89.66,24.5l6.73,1.79c.92.24,1.83.52,2.75.72a2.43,2.43,0,0,1,.77.2c.5.49,0-.28-.07-.11-.54.89-3,1.61-4,2.05-11.58,5.23-24.9,6.43-37.47,6.55a184.78,184.78,0,0,1-38.48-3.65c-4.74-1-9.48-1.8-14.26-2.56C564,375.53,530,371.37,496,367.15q-65.13-8.08-130.42-15c-17.65-1.84-35.32-3.6-53-5.05-8.5-.69-17-1.32-25.52-1.69-12.36-.54-25-.76-36.46-6-6.88-3.18-12.55-8-18.47-12.64Q222.23,319,212,311.6c-13.89-10-28.28-19.13-43-27.86q-21.68-12.87-43.84-24.92a157,157,0,0,0-18.11-8.72c-6.37-2.49-12.86-4.64-19.25-7-12.48-4.69-25.36-10.47-33.07-21.85l-.82.49c6,3.73,12.05,7.89,18.57,10.6.4.17,1.12-.41.55-.65-6.44-2.68-12.46-6.82-18.37-10.51-.28-.17-1.1.07-.82.49,7.22,10.66,19,16.47,30.66,21,13.17,5.15,26.37,9.35,38.84,16.14,29.72,16.2,59.36,32.94,86.91,52.66,6.82,4.88,13.54,9.93,20.16,15.09,5.78,4.51,11.31,9.32,17.89,12.64,10.5,5.29,22.07,6.21,33.63,6.72,17.09.74,34.11,2.14,51.14,3.74,41.72,3.92,83.36,8.68,125,13.64,39.14,4.67,78.27,9.5,117.29,15,11,1.56,22.07,3,33,5.13,22.79,4.44,47.31,7,70.11,1.12a55.35,55.35,0,0,0,14.62-5.87c.22-.12.46-.5.07-.61-26.61-6.88-53.1-14.29-79.6-21.59q-59.41-16.37-118.77-33-53.05-14.83-106-29.88-54.27-15.5-108.2-32.11c-33.6-10.32-67.06-21.07-100.21-32.77-8-2.81-15.88-5.72-23.92-8.3-4.89-1.58-9.72-2.5-14.85-1.66-7.38,1.21-14,5.18-20.94,7.67a137,137,0,0,1-23.7,5.93c-8.16,1.36-15.83,1.81-23.84-.74C72.67,231.51,72,232.11,72.53,232.29Z" transform="translate(-0.25)" fill="#c7c8ca"/><path d="M149.38,231.91c31.66,19.79,75.2,50.13,99,75.86-16.5-16.49-62-42.88-84.44-53.43-13.19-7.92-47.49-24.41-62-24.41C101.88,229.93,132.23,222.68,149.38,231.91Z" transform="translate(-0.25)" fill="#fff"/><path d="M149,232.2q20.61,12.88,40.45,27c13.78,9.81,27.29,20.07,40,31.19A237,237,0,0,1,247.88,308l.81-.51c-7.37-7.34-16.1-13.38-24.71-19.16-10.57-7.09-21.47-13.69-32.54-20-5-2.85-10.11-5.64-15.24-8.32q-3.37-1.78-6.79-3.49c-2-1-4.11-1.88-6-3a256.41,256.41,0,0,0-28.61-14.22c-5.38-2.31-10.83-4.48-16.4-6.3a66.56,66.56,0,0,0-13.77-3.29,23.76,23.76,0,0,0-2.67-.15l.06.72a99.44,99.44,0,0,1,11.13-1.88,88.18,88.18,0,0,1,23.18-.1,39.66,39.66,0,0,1,12.81,3.95c.42.22,1.1-.39.55-.68-7.16-3.8-15.59-4.71-23.58-4.72a112.72,112.72,0,0,0-20.16,1.9c-1.38.25-2.76.51-4.12.83-.51.12-.5.72.06.73,4.42,0,8.86,1.21,13.07,2.47a168.11,168.11,0,0,1,16.14,5.87A268.23,268.23,0,0,1,160.77,253c3.83,2.17,7.8,4,11.72,6q7.6,3.92,15.06,8.09c10.94,6.12,21.72,12.57,32.21,19.44,9,5.91,18.06,12.08,26,19.39.74.68,1.46,1.37,2.18,2.08.28.28,1.13-.16.81-.51-10.61-11.47-22.62-21.63-34.88-31.27-13.49-10.62-27.49-20.59-41.75-30.15q-11.08-7.44-22.39-14.51C149.36,231.38,148.53,231.9,149,232.2Z" transform="translate(-0.25)" fill="#fff"/><path d="M422,347.18c13.27,3.79,26.78,6.77,40.31,9.44,15.71,3.11,31.5,5.77,47.32,8.2,16.49,2.55,33,4.83,49.58,7q23.13,3,46.31,5.62,19.39,2.22,38.81,4.32l4,.44c.39,0,1-.5.37-.57-12.51-1.38-25-2.74-37.52-4.16q-23-2.61-45.95-5.49c-16.4-2.08-32.78-4.3-49.13-6.76-16-2.4-31.94-5-47.82-8.05-13.85-2.64-27.67-5.57-41.28-9.25l-4.45-1.24c-.33-.09-1.14.39-.59.54Z" transform="translate(-0.25)" fill="#fff"/></g><g id="b2336e6b-50fa-4c07-8ef0-8be54ee0b9a5" data-name="structure over sunshield"><path d="M670.55,386.46c3.92,9.74,3.71,20,3.94,30.35.1,4.63.19,9.38,1.44,13.87.75,2.69,2.05,5.13,3.05,7.71a28.77,28.77,0,0,1,1.5,12.29c-.09,1.61,3.79.86,3.87-.47a31.54,31.54,0,0,0-1-11.57c-.85-2.6-2.2-5-3.08-7.57-1.39-4.14-1.65-8.51-1.81-12.85-.18-5.19-.07-10.39-.39-15.58a54.61,54.61,0,0,0-3.62-17.22c-.55-1.38-4.37-.22-3.86,1Z" transform="translate(-0.25)"/><path d="M202.69,398.51c2.57-13.17,11.86-23.49,17.72-35.18,4.28-8.54,8.09-17.33,12-26,.83-1.83,1.65-3.67,2.48-5.49a20.06,20.06,0,0,1,1.17-2.48c.57-.89-1.39-.92-1.84-.22a52.05,52.05,0,0,0-3,6.57q-3,6.7-6,13.4c-2,4.33-3.94,8.65-6,12.92-2.49,5.08-5.66,9.77-8.57,14.61-4.12,6.86-8.26,14.12-9.82,22.06-.18.94,1.79.7,2-.15Z" transform="translate(-0.25)" fill="#231f20"/><path d="M225.78,327.75c1.77,2.2,3.93,4.77,6.64,5.79,3.3,1.24,7-.34,10.25,1.19.3.15,1.18-.29.76-.49-3.13-1.48-6.52-.23-9.74-1a9.53,9.53,0,0,1-4-2.52,30.93,30.93,0,0,1-3.05-3.32c-.22-.27-1.15.07-.89.39Z" transform="translate(-0.25)" fill="#231f20"/><path d="M219,345c1.22.25,2.11,1.38,2.91,2.26a8.1,8.1,0,0,0,2.79,2.39c2.8,1.07,6-.34,8.72,1.25.32.19,1.19-.26.75-.52a8.29,8.29,0,0,0-4.21-1,15.07,15.07,0,0,1-4.5-.3c-1.27-.41-2.2-1.76-3.07-2.7a5.73,5.73,0,0,0-2.82-2c-.38-.08-1.15.49-.57.6Z" transform="translate(-0.25)" fill="#231f20"/><path d="M211.34,360.48c2.16,1.39,3.46,3.68,5.85,4.77a12.58,12.58,0,0,0,4.6.78,13.41,13.41,0,0,1,5.38,1.05c.35.16,1.21-.32.75-.54a12.09,12.09,0,0,0-4.58-1.11,19.16,19.16,0,0,1-5.07-.58c-2.6-.9-4-3.47-6.18-4.9-.33-.22-1.19.24-.75.53Z" transform="translate(-0.25)" fill="#231f20"/><path d="M204.07,373.3c2.63.82,4.06,3.68,6.83,4.17s5.86.17,8.76.48a.86.86,0,0,0,.69-.19c.09-.13.15-.3-.09-.32-2.84-.3-5.74,0-8.56-.45s-4.22-3.32-6.86-4.14a.78.78,0,0,0-.68.09c-.09.07-.33.29-.09.36Z" transform="translate(-0.25)" fill="#231f20"/><path d="M194,390.54c2,.95,3.51,2.7,5.2,4.12a7.34,7.34,0,0,0,2.39,1.49,12.9,12.9,0,0,0,2.15.38,30.85,30.85,0,0,0,5.26.25c.84,0,2.41,0,2.89-.9.26-.46-.72-.45-.92-.09-.12.21-.91.23-1.11.25a16.54,16.54,0,0,1-2.11.08,32.09,32.09,0,0,1-4.6-.4,8.26,8.26,0,0,1-4.23-2.52,17.49,17.49,0,0,0-4.36-3.29c-.38-.18-1.11.37-.56.63Z" transform="translate(-0.25)" fill="#231f20"/><path d="M233.23,328.22a4.59,4.59,0,0,0,1.46.93,5.55,5.55,0,0,0,2.13.47,2.4,2.4,0,0,0,1.36-.37c.09-.06.26-.17.23-.3s-.25-.14-.35-.15l-.46,0h0l-.15,0-.22,0-.45-.13-.38-.14a4.62,4.62,0,0,1-1.35-.88c-.09-.1-.39-.08-.49-.07a2.53,2.53,0,0,0-.76.17c-.15.06-.82.31-.57.56Z" transform="translate(-0.25)" fill="#231f20"/></g><g id="bd4cf739-f2b5-4dae-b9d9-2b64749abb94" data-name="Layer 22"><path d="M335.56,334.21c18.47,1.32,36.94,4.29,55.41,5.61-4.28,4-5.38,7.15-9,11.76-13.52-2.64-30.23-2.86-44.09-4.84-6.26-1-12.86-2-19.13-1.65-4.29,0-11.65-.43-15.28-2.74C303.46,342.35,324,333.55,335.56,334.21Z" transform="translate(-0.25)" fill="#533b15"/><path d="M335.18,334.72c18.52,1.34,36.89,4.27,55.41,5.61l-.38-.64c-3.72,3.48-6,7.91-9.14,11.89l1.49-.49c-10.6-2-21.43-2.57-32.16-3.52-5.32-.48-10.58-1.15-15.86-1.93-2.8-.41-5.61-.75-8.43-1-2.62-.18-5.22-.07-7.84-.1-4.57-.07-10-.23-14-2.68l-.41.81a111.5,111.5,0,0,1,22.73-7.21,36.71,36.71,0,0,1,8.62-.78c.69,0,2.06-1,.77-1-5.44-.28-11,1-16.17,2.47a145.08,145.08,0,0,0-13.88,4.68c-.94.37-1.88.74-2.81,1.14-.31.13-.89.51-.4.8,3.49,2.14,8.07,2.49,12.07,2.72,2.28.13,4.55,0,6.83,0a78.6,78.6,0,0,1,8.94.7c5.5.71,11,1.59,16.48,2.11s11,.91,16.45,1.4a179.52,179.52,0,0,1,17.9,2.32,1.71,1.71,0,0,0,1.49-.5c3-3.87,5.27-8.24,8.89-11.63.43-.4.06-.62-.38-.65C372.84,338,354.47,335,336,333.7,335.25,333.65,333.88,334.63,335.18,334.72Z" transform="translate(-0.25)" fill="#533b15"/><path d="M322.87,341.39c6.37-1.76,12.53,1.1,18.91,1.76a57.47,57.47,0,0,1,18.25,4c4.39,1.54,11.7,1.4,16.1,3.38-18-1.24-27.29-2.06-37.43-3.38A257.46,257.46,0,0,0,312,344.63S319.35,342.27,322.87,341.39Z" transform="translate(-0.25)" fill="#341f10"/><path d="M322.93,341.64c4.95-1.28,10,.45,14.87,1.37,4.66.89,9.38,1,14,2.07,4.1,1,7.89,2.77,12.08,3.42,3.77.59,7.78.76,11.33,2.3l1.71-.67c-8.32-.57-16.63-1.16-24.93-2-7.49-.73-14.94-1.8-22.42-2.64-5.64-.63-11.29-1.11-17-1.26l-.32.53c3.52-1.12,7.05-2.25,10.63-3.16.16,0,1-.25.9-.51s-.92,0-1,0c-3.75.95-7.46,2.14-11.14,3.32-.27.09-1,.52-.31.54,9.74.26,19.38,1.59,29,2.78,6.52.81,13.06,1.42,19.61,1.94,5.11.41,10.21.77,15.32,1.12a2.61,2.61,0,0,0,1.23-.22c.07,0,.74-.33.48-.44a33.64,33.64,0,0,0-8.92-2c-1.6-.22-3.19-.42-4.77-.75a42.48,42.48,0,0,1-5-1.61,56.28,56.28,0,0,0-11.16-2.57c-2.06-.26-4.14-.34-6.18-.65s-3.91-.76-5.85-1.18c-4.13-.87-8.2-1.35-12.34-.28-.16,0-1,.26-.9.51S322.82,341.67,322.93,341.64Z" transform="translate(-0.25)" fill="#341f10"/></g><g id="bc5db67a-6c4b-4066-aba7-9ba677f701a2" data-name="backplane(black back)"><path d="M261.3,268.63c0,3.57,0,7,0,10.56" transform="translate(-0.25)" fill="none" stroke="#231f20"/><path d="M257.56,275.45c4.13.23,8.24,0,12.31,0" transform="translate(-0.25)" fill="none" stroke="#231f20"/><path d="M263.72,270.83a23.32,23.32,0,0,0,6.15-.22" transform="translate(-0.25)" fill="none" stroke="#231f20"/><path d="M253.6,275c.69,3-.28,6.74-.5,9.85-.17,2.28-.1,4.6-.35,6.86,2-.92,3.86-.23,5.91-.44" transform="translate(-0.25)" fill="none" stroke="#231f20"/><path d="M261.52,301.83c-1.71,1.87-12.46-1.43-8.59,3.53,1.31,1.69,4.54,3.07,5.1,5.29.42,1.69-2.11,5.94,2,4,1.14,1.44.59,2.94.91,4.62a13.39,13.39,0,0,0,1.67,3.91c.63,1.08.18,1.59,1.52,1.54.67,0,4-.17,4.46-.68" transform="translate(-0.25)" fill="none" stroke="#231f20"/><path d="M341.56,306.67c-.82,5.13,2.61,39.89-3.08,38.26-3.08-.88-8.58-.88-11.66-1.32-2-.28-2.2-17-1.88-24.62.23-5.52,1.07-8.77-3.14-12.31-6.41-5.37-36.31-24.85-41.76-29.07-1-5.26,1.55-14.6-3.12-18.25,5.54.46,20.69-.13,25.17,2.79,3.64,2.37-1.25,6.46,2.06,9.34,5.61,4.9,6.73,6,14.32,5.06,6.89-.89,14.4-2.41,21.28-2-1.18.2,3.34,4.67,6.32,7.39,4.77,4.33,21.9,25.43,23.18,31.34,1.13,5.18,2.55,9.27,4.19,14.51.75,2.39,2.06,7,3.19,11.12,1,3.62-.28,8.22,1.15,11.58-8.1.38-13.36-1.81-21.71-3.57" transform="translate(-0.25)" fill="#231f20" stroke="#231f20" stroke-width="0.25"/></g><g id="a711fca3-2b21-413e-9d20-fa9c5eaa04df" data-name="backplane(copper)"><path d="M377,305.46c4.28,5,7.58,0,14.18.66.33-6.92,3.3-12.86-4.29-13.52-8.57-1-7.91,2.64-8.9,9.56" transform="translate(-0.25)" fill="#714b1e"/><path d="M376.06,305.83a6.69,6.69,0,0,0,3.17,2.16,7.33,7.33,0,0,0,3.36,0c2.69-.54,5.15-1.63,8-1.37.35,0,1.53-.09,1.56-.62.14-2.71.75-5.37.84-8.07.07-2-.36-3.93-2.24-5a10,10,0,0,0-3.89-.91,15.91,15.91,0,0,0-4,0,5.6,5.6,0,0,0-4.51,3.05c-1,2.19-1,4.84-1.3,7.17-.09.67,1.84.32,1.93-.27a47,47,0,0,1,.93-6.13,4.93,4.93,0,0,1,.92-1.93,2.59,2.59,0,0,1,1.49-.88,10.38,10.38,0,0,1,3.05-.1,10,10,0,0,1,3.6.73c1.75.83,2.15,2.67,2.12,4.45-.06,2.71-.7,5.38-.84,8.09l1.56-.62a22.39,22.39,0,0,0-8.07,1.17,6.09,6.09,0,0,1-2.74.32,5.62,5.62,0,0,1-3.07-2c-.4-.46-2.25.23-1.8.73Z" transform="translate(-0.25)" fill="#714b1e"/><path d="M334.74,299.53c1.65,5.93,6.93,13.19,8.25,19.78,4.61-1,9.56-1.65,14.18-2.63-3.63-5.94-7.59-12.21-10.89-18.14-3.29,2-7.25,1.31-10.88,1" transform="translate(-0.25)" fill="#714b1e"/><path d="M333.77,299.78c2,6.91,6.77,12.71,8.25,19.79.09.44.83.34,1.11.28,4.7-1,9.48-1.64,14.18-2.64.38-.08,1-.46.75-.93-3.68-6-7.45-12-10.88-18.14-.26-.45-1.22-.1-1.51.06-3,1.71-6.65,1-9.91.73-.81-.08-2,1.07-.72,1.19,4.07.38,8.15.86,11.85-1.25l-1.5.06c3.43,6.16,7.2,12.12,10.88,18.14l.75-.93c-4.7,1-9.47,1.64-14.18,2.64l1.11.28c-1.48-7.09-6.27-12.89-8.25-19.79-.21-.74-2.14-.22-1.93.51Z" transform="translate(-0.25)" fill="#714b1e"/><path d="M315,300.51c2.31,11.22,13.85,14.19,19.46,22.43,2-3.95-1.65-9.89-2.64-14.18-1-4.62,3-9.89,2.31-14.51-1.32-10.56-6.93-24.08-18.8-16.16C316.27,277.43,313.3,292.93,315,300.51Z" transform="translate(-0.25)" fill="#714b1e"/><path d="M314,300.77c1.11,5.12,4.37,9,8.31,12.21s8.24,6,11.15,10.22c.3.44,1.73,0,1.92-.42,1.93-4.17-1.06-9.06-2.28-13-1.52-4.94,1.66-9.19,2-14a21.08,21.08,0,0,0-.81-6.11,34.82,34.82,0,0,0-1.82-5.74c-1.3-3.08-3.27-6.35-6.41-7.82-3.84-1.8-8.2-.2-11.51,2-.83.55,1,.34,1.3.19-4.51,2.33-1.26-.19-1.37.22,0,.05,0,.14,0,.2a5.33,5.33,0,0,0,0,.56c0,.65-.07,1.29-.13,1.94-.16,2-.38,4-.54,5.92-.38,4.5-.8,9.25.13,13.7.09.44,2,0,1.94-.51-1.05-5-.45-10.42,0-15.48.17-1.91.42-3.83.5-5.75,0-.3.12-.9-.07-1.18-.32-.45-1.28-.1-1.65.09l1.3.19c3.1-2,6.5-2.83,9.68-.51,2.68,2,4.28,5.16,5.38,8.21a37.43,37.43,0,0,1,1.49,5.39,17.93,17.93,0,0,1,.56,5.4c-.46,4.25-3.32,8.34-2.25,12.71s4.61,9.36,2.58,13.78l1.92-.43c-2.84-4.09-7-6.88-10.79-10-4.09-3.32-7.53-7.15-8.67-12.44C315.82,299.82,313.88,300.29,314,300.77Z" transform="translate(-0.25)" fill="#714b1e"/><path d="M268.16,263.43c.65,19.92-.66,39.83-1.33,59.72,0,1.3,2,1.1,2.74.7,7.56-4.05,16-5.9,24.18-8.23,6.61-1.89,13.39-3.27,19.88-5.56a31.72,31.72,0,0,0,9.82-5.19c.28-.23.59-.87.21-1.18-3.26-2.66-5.74-6-8.43-9.24a84.53,84.53,0,0,0-9.58-9.34c-3.43-3-7-5.81-10.21-9-3.5-3.43-7.08-6.77-10.57-10.21-3.88-3.81-7.68-7.68-11.34-11.7-1-1.05-3.29-.17-3.73,1-1.44,3.86-.7,8.2-1.32,12.2-.25,1.66,3.66,1,3.88-.42.62-4-.12-8.35,1.32-12.2l-3.72,1c6.54,7.17,13.55,13.9,20.57,20.61,3.3,3.15,6.7,6.14,10.17,9.1a97.91,97.91,0,0,1,9.86,9.24c3.14,3.55,5.83,7.5,9.53,10.52l.21-1.19a25.78,25.78,0,0,1-7.91,4.05c-3.21,1.14-6.53,2-9.83,2.81-7.19,1.81-14.38,3.76-21.47,5.92A72.56,72.56,0,0,0,268,322l2.73.69c.68-20.1,2-40.21,1.32-60.33,0-1.39-3.92-.58-3.87,1Z" transform="translate(-0.25)" fill="#714b1e"/><path d="M248.7,259.47c2.66,7.35,4.58,15,6.72,22.53q4.41,15.48,8.67,31c.93,3.38,1.87,6.75,2.75,10.14.29,1.1,4.16.09,3.87-1-2-7.61-4.14-15.18-6.25-22.76-2.88-10.32-5.78-20.64-8.8-30.92-1-3.33-1.91-6.7-3.09-10-.41-1.13-4.24,0-3.87,1Z" transform="translate(-0.25)" fill="#714b1e"/><path d="M271.08,279.41c-4.94-.66-10.55-1.32-15.83-2,5.28,6.59,5.94,16.82,8.25,24.4,2,5.94,4.61,12.87,4.28,18.8,0-8.57-1.31-16.82-1.31-25.06,0-4.62-.33-13.86,3-17.15" transform="translate(-0.25)" fill="#714b1e"/><path d="M271.68,278.92c-5.27-.7-10.55-1.32-15.83-2-.3,0-2,.26-1.5.85,4.46,5.68,5.49,13.19,7.07,20,1.75,7.6,5.76,15,5.4,23l1.93-.4c0-8.53-1.29-17-1.32-25.55a80.17,80.17,0,0,1,.26-8.63c.28-2.64.72-5.77,2.64-7.78.32-.34-.28-.48-.51-.5a1.79,1.79,0,0,0-1.28.51c-1.91,2-2.43,5.06-2.74,7.71a74.33,74.33,0,0,0-.3,8.7c0,8.71,1.29,17.35,1.32,26.06,0,.52,1.9.16,1.93-.39.36-8.09-3.62-15.49-5.4-23.21-1.6-6.94-2.68-14.46-7.2-20.23l-1.5.85c5.28.66,10.56,1.28,15.83,2a1.72,1.72,0,0,0,1.37-.36c.22-.27.29-.55-.17-.61Z" transform="translate(-0.25)" fill="#714b1e"/><path d="M248.65,193c.34,15.5,1.32,28.7,1,43.21,6.6-1,21.44-1.65,28-1,1,9.56.66,20.12,2.64,29.35,2,0,9.56-.33,11.21-2,2.64-2,1.65-11.21,2-14.84.66-13.19.66-59.37-11.87-57.72-6.6,1-23.42,2.31-26.06,2.31a27.23,27.23,0,0,0-6.93,1Z" transform="translate(-0.25)" fill="#714b1e"/><path d="M247.69,193.25c.31,14.4,1.3,28.8,1,43.21,0,.27.69.2.81.18a129.46,129.46,0,0,1,13.77-1.09,104.31,104.31,0,0,1,13.81.12l-.36-.2c1,9.77.62,19.7,2.64,29.35,0,.22.42.21.57.21a49.24,49.24,0,0,0,6.42-.45c2-.27,4.36-.59,6-1.9s1.8-3.62,2-5.51c.22-2.54.13-5.09.15-7.64,0-3.26.26-6.52.29-9.78q.06-6.52-.2-13.05c-.36-9-.95-18.34-3.48-27-.84-2.89-1.94-6.07-4.09-8.28s-4.37-1.88-7.09-1.53c-5.21.66-10.45,1.1-15.68,1.51-2.11.16-4.23.32-6.35.44a50.46,50.46,0,0,0-6.72.55c-.85.16-1.7.34-2.53.58l1.07.13v-.33c0-.45-1.93-.13-1.93.52v.33c0,.35.95.17,1.07.13,3.72-1.1,7.71-.92,11.55-1.19q7.43-.53,14.84-1.29c2.05-.21,4.09-.51,6.13-.73a3.92,3.92,0,0,1,2.76.68c2.23,1.48,3.42,4.27,4.29,6.68,2.81,7.76,3.48,16.37,4,24.54.48,7.8.59,15.64.32,23.45-.07,1.86-.18,3.71-.17,5.58a41,41,0,0,1-.44,8.28,4.94,4.94,0,0,1-1.25,2.78,5.94,5.94,0,0,1-2.95,1,42.37,42.37,0,0,1-7.11.59l.56.2c-2-9.65-1.65-19.58-2.63-29.35,0-.13-.27-.19-.36-.2a107.26,107.26,0,0,0-14.23-.13,130.7,130.7,0,0,0-14.26,1.14l.81.18c.31-14.41-.68-28.8-1-43.21C249.61,192.27,247.67,192.6,247.69,193.25Z" transform="translate(-0.25)" fill="#714b1e"/><path d="M245.36,151.76c3.29-1,7.58,0,10.88-1.65,8.91-4.94,16.82-14.84,24.08-22.42,7.25-7.26,15.5-13.86,22.1-22.1C306,101,310.33,95.36,315,91.74c.66,3.29.49,7.09,1.48,10.39,2.64-6.27,8.08-11.38,13-15.67,4.29-3.63,13.19-9.9,15.17-15.17-8.57-.66-20.12,3.3-28,6.26-9.24,4-17.81,16.17-24.08,23.75-7.91,9.57-15.83,19.13-23.75,28.37-6.59,7.58-15.17,13.19-21.76,20.44C246.35,150.45,244.7,152.09,245.36,151.76Z" transform="translate(-0.25)" fill="#714b1e"/><path d="M245.45,152.1c2.8-.77,5.8-.29,8.64-.91,2.69-.58,5-2.18,7.16-3.79a97.24,97.24,0,0,0,13.23-12.51c4.25-4.61,8.52-9.1,13.12-13.37a180.83,180.83,0,0,0,13.82-13.73c4.67-5.41,8.63-11.5,14.28-16L314,92c.65,3.44.53,7,1.49,10.38.15.53,1.77-.06,1.92-.41,3.05-7.08,9.14-12.54,15.05-17.27,2.61-2.1,5.26-4.18,7.7-6.49,2.13-2,4.35-4.3,5.45-7.08.08-.2-.21-.25-.34-.26-8.25-.58-16.64,2.06-24.34,4.74a37.05,37.05,0,0,0-10.1,4.85A58,58,0,0,0,302,88.71c-2.77,3.1-5.35,6.36-7.94,9.61-3,3.73-6.06,7.39-9.11,11.06q-5,6.09-10.13,12.14c-3.24,3.84-6.39,7.83-9.95,11.38-3.74,3.75-7.86,7.08-11.84,10.57-1.93,1.7-3.83,3.45-5.63,5.3a25.79,25.79,0,0,1-1.94,1.84c-.36.31-1.14.84-1.25,1.34,0,.13,0,.2.17.24a2.17,2.17,0,0,0,1.28-.17c1.28-.49.08-.81-.69-.51l-.1,0,1.13-.14c.39.11,0,.22.22.05a3.19,3.19,0,0,0,.31-.33,5.49,5.49,0,0,1,.72-.64,18.31,18.31,0,0,0,1.91-1.83c1.54-1.59,3.17-3.11,4.82-4.58,3.3-2.94,6.73-5.73,10-8.72a112.55,112.55,0,0,0,9.45-10.2q4.86-5.73,9.66-11.51c5.67-6.8,11.24-13.7,16.85-20.55A101.19,101.19,0,0,1,308,84.21c2.7-2.57,5.75-5.14,9.26-6.52a112.42,112.42,0,0,1,12.79-4.19A43.4,43.4,0,0,1,344,71.71l-.33-.26c-1.15,2.92-3.56,5.27-5.83,7.36-2.51,2.31-5.21,4.4-7.86,6.54-5.72,4.64-11.54,10.05-14.51,16.94l1.92-.42c-1-3.39-.83-7-1.48-10.39-.09-.48-1.51,0-1.72.2-4.73,3.77-8.45,8.6-12.16,13.33a123.24,123.24,0,0,1-13.1,13.74c-4.48,4.18-8.94,8.32-13.09,12.84a164.26,164.26,0,0,1-12.73,13c-1.29,1.12-2.62,2.19-4,3.18a15.91,15.91,0,0,1-4.43,2.58c-3,.88-6.33.24-9.41,1.09-.18,0-1,.29-.88.59S245.26,152.15,245.45,152.1Z" transform="translate(-0.25)" fill="#714b1e"/><path d="M324.84,90.09c-5.27,5.27-16.49,13.85-18.47,21.77-5.27,21.76,26.39,14.51,33.65,1.32,5.27-7.92,8.57-26.39-5.28-25.73-6.6,0-14.51,7.91-21.77,9.89" transform="translate(-0.25)" fill="#939598"/></g><g id="a96ae60d-0833-4f1d-82f4-44aed963d72c" data-name="Layer 11"><path d="M324.68,103c.66-3.63,1.65-7.59,4.29-10.22,3.3-3,4.89-.44,7.86-2.09a17.41,17.41,0,0,0,7.91-7c-.77-1.54-.11-3.3,2.42-4.18,4.21-7.44,6.15-16.81,6-19.18-2.64-.33-6.77.41-9.4-.25-.66,4.29-.58,8.66-.91,12.95-2,1-2.31,4-4,6.26-3,2.64-7.58,5-10.55,7.26-2.64,2-18.2,13.41-11.93,16.71A56.3,56.3,0,0,1,324.68,103Z" transform="translate(-0.25)" fill="#9a762c"/><path d="M325.65,102.85a27.19,27.19,0,0,1,1.86-6.58c.92-2,2.46-4.47,4.89-4.48,1.66,0,3.11.16,4.67-.6a27.47,27.47,0,0,0,3-1.66,17.13,17.13,0,0,0,4-3.65c.47-.58,1.52-1.63,1.61-2.38,0-.29-.22-.61-.27-.9a2.1,2.1,0,0,1,.24-1.39c.53-.92,1.59-.91,2.26-1.57a11.34,11.34,0,0,0,1.64-3.12A56.69,56.69,0,0,0,352,70.33c1-3.2,2.29-6.93,2.08-10.35,0-.26-.42-.34-.61-.36-3-.32-6.17.47-9.18-.21-.47-.11-1.45.07-1.55.68-.63,4.29-.59,8.63-.9,13l.35-.46c-2.06,1.17-2.57,3.65-3.64,5.59A9.23,9.23,0,0,1,335.42,81c-1.26.86-2.57,1.66-3.87,2.48a82.42,82.42,0,0,0-7.9,5.74,48.22,48.22,0,0,0-7.53,7.24c-1.27,1.62-3.25,4.44-1.54,6.42.95,1.08,2,.86,3.25.76a32.75,32.75,0,0,1,6.49-.08c.84.1,2-1.07.72-1.23a32.52,32.52,0,0,0-6.24,0,18.55,18.55,0,0,0-2.11.16l-.15,0c.28-.28.43.29.29-.07-.07-.19-.5-.42-.64-.62-1.52-2.34,2.19-5.89,3.6-7.34a71.73,71.73,0,0,1,7.94-6.82c1.53-1.16,3.08-2.26,4.71-3.29,1.23-.78,2.48-1.55,3.7-2.36a18.54,18.54,0,0,0,3.51-2.64c1-1.13,1.47-2.76,2.12-4.1a5.49,5.49,0,0,1,1.11-1.66c.61-.53.87-.47.95-1.3.4-4.15.26-8.33.87-12.47l-1.55.68c3.17.72,6.42-.06,9.62.28l-.61-.35c.18,3-.94,6.32-1.81,9.12a52.28,52.28,0,0,1-2.58,6.78,9.33,9.33,0,0,1-1.39,2.7,12.11,12.11,0,0,1-1.19.63,4.65,4.65,0,0,0-1.05,1,3,3,0,0,0-.67,1.75c0,.37.14.68.16,1A2.57,2.57,0,0,1,342.9,85,15.59,15.59,0,0,1,338.51,89a9.41,9.41,0,0,1-3.38,1.58c-1.58.2-3-.24-4.58.37-4.64,1.83-6,7.71-6.84,12.07C323.55,103.89,325.51,103.6,325.65,102.85Z" transform="translate(-0.25)" fill="#9a762c"/><path d="M365.88,61.15c.23.35,1.3,1.51,1.9,1.31.59-3.57,4.64-9.9,1.26-12.28a6.89,6.89,0,0,0-2.14,4A27.32,27.32,0,0,0,365.88,61.15Z" transform="translate(-0.25)" fill="#9a762c"/><path d="M343.81,59.41c1-.49,7.26.66,9.56,1a114.48,114.48,0,0,1,7.42-9.89c2.81-3.46,4.13-6.27-1.15-6.43-1.65,0-3.46-.17-4.78.49C352.88,45.73,343.81,59.41,343.81,59.41Z" transform="translate(-0.25)" fill="#d4a248"/><path d="M344.37,59.54c-.69.3-.48.14,0,.15s.71,0,1.06.07c.84.07,1.68.18,2.52.3,1.55.22,3.1.49,4.65.72a2.07,2.07,0,0,0,1.75-.55c1.54-2.18,3.05-4.39,4.67-6.53,1.34-1.77,2.91-3.37,4.13-5.23.62-.94,1.58-2.49.8-3.6-.95-1.36-3.36-1.18-4.78-1.2-1.77,0-4,0-5.44,1.18a14.47,14.47,0,0,0-2,2.18c-1.89,2.38-3.64,4.87-5.37,7.37-1.19,1.72-2.37,3.44-3.52,5.18-.2.3.69.2.77.19a1.72,1.72,0,0,0,1.13-.53c2.37-3.58,4.81-7.13,7.37-10.57.74-1,1.48-2,2.28-2.88.25-.29.49-.57.76-.83s.57-.42,1.26-.48a18.18,18.18,0,0,1,3.38,0,3.51,3.51,0,0,1,2.05.71c1,.92.09,2.44-.47,3.33-1.18,1.89-2.78,3.5-4.13,5.27-1.68,2.2-3.24,4.48-4.84,6.74l1.75-.54c-2-.29-3.93-.64-5.9-.89-1.63-.2-3.46-.53-5,.15-.26.11-.56.32-.23.5S344.07,59.67,344.37,59.54Z" transform="translate(-0.25)" fill="#d4a248"/></g><g id="ac24a81c-3181-4f39-a574-bac1935c8d0b" data-name="Layer 27"><path d="M351.89,63.7c.66,2.31-2.14,8.08-2.8,10.39-1,3.63.82,3.79-1.82,6.43-.66,1,0,2.64-1,3.63-1,1.32-3,.33-4.29,1.65-2.63,2.31-3.62,6.6.33,8.58,10.56,4.61,14.19-9.57,16.5-15.51,3.95-9.89,7.91-6.59,16.16-8.57-3.3-6.27-2-13.85-5.28-19.46-2.64,3.63,0,8.9-2,12.86-5.94-1-4.37-12.28-4.7-17.23C363,46.47,357.17,59.74,351.89,63.7Z" transform="translate(-0.25)" fill="gray"/><path d="M350.92,64a8.32,8.32,0,0,1-.65,4.25c-.51,1.57-1.14,3.09-1.71,4.63a10.73,10.73,0,0,0-.77,4,6.93,6.93,0,0,1,0,1.44,4.17,4.17,0,0,1-1.17,1.82c-1.06,1.28-.07,3.88-2.09,4.17a5.84,5.84,0,0,0-4.14,2.09c-1.75,2.11-2.48,5.34-.31,7.45,1.93,1.9,5.29,2.47,7.87,1.9a10.48,10.48,0,0,0,5.86-4c3.25-4.17,4.33-9.32,6.47-14,1.21-2.67,2.81-5.06,5.84-5.63s6-.48,9-1.17c.28-.07,1-.47.8-.87-3.14-6.17-1.93-13.58-5.35-19.61-.36-.64-1.52-.1-1.81.32-2.64,3.9-.08,8.78-2,12.87l1.26-.58c-3.1-.59-3.66-4.75-3.89-7.29-.29-3.18,0-6.36-.19-9.54-.05-.8-1.68-.29-1.89.17-1,2.35-2.2,4.64-3.44,6.88-2,3.53-4.14,7.54-7.4,10.05-1,.79.54,1.34,1.26.79,3.35-2.58,5.65-6.53,7.69-10.15,1.34-2.41,2.61-4.87,3.73-7.4l-1.89.18c.22,3.55-.15,7.11.32,10.65.42,3.12,1.58,6.32,5,7a1.33,1.33,0,0,0,1.26-.57c1.89-4.09-.61-9.07,2-12.87l-1.81.33c3.36,5.91,2.12,13.25,5.2,19.31l.8-.87c-4.42,1-10,0-13.51,3.45-2,1.91-3,4.58-3.94,7.11-.83,2.28-1.63,4.57-2.67,6.77a16.92,16.92,0,0,1-4.3,6.12,6.63,6.63,0,0,1-6.91.86c-3.42-1.35-3.48-5.13-1.11-7.55,1.18-1.21,3-.59,4.33-1.67a3.16,3.16,0,0,0,1.07-1.72c.21-.9,0-1.8.58-2.57a4.73,4.73,0,0,0,1.41-3.38,11.21,11.21,0,0,1,.77-4.47c.59-1.58,1.23-3.15,1.74-4.76a8.8,8.8,0,0,0,.59-4.44C352.66,62.62,350.72,63.12,350.92,64Z" transform="translate(-0.25)" fill="#461853"/></g><g id="f1f26521-6f1c-402f-86fb-ae7749e02d0a" data-name="backplane(black)"><path d="M315.61,119.33c.44-6.59.44-19.35.44-27.26-7.92,6.59-41.78,37.38-53.21,47.93-8.94,8.25-18.47,16.71-18.47,29,0,9.67-.88,19.34.88,29,11,1.76,41.78,1.76,48.37,1.32" transform="translate(-0.25)" fill="#231f20"/><path d="M315.85,119.31c.59-9.06.44-18.19.44-27.27,0-.18-.3-.15-.4-.07-11.16,9.32-21.8,19.31-32.57,29.08Q274.58,129,265.87,137c-6.7,6.15-14.25,12.22-18.64,20.34a25.14,25.14,0,0,0-2.79,7.94c-.55,3.31-.33,6.74-.4,10.09-.17,7.61-.37,15.25,1,22.77,0,.07.09.09.15.1a153.94,153.94,0,0,0,19.43,1.34q10.79.31,21.59.19c2.47,0,4.95-.05,7.42-.21.25,0,.38-.34,0-.32-4.17.27-8.37.24-12.54.24q-9.28,0-18.56-.29c-5.33-.19-10.7-.39-16-1.09-.75-.1-1,0-1.2-.81-.23-1.19-.37-2.42-.5-3.63-.27-2.56-.4-5.13-.45-7.7-.08-4.84.12-9.67.18-14.51.06-4.06.31-7.83,1.91-11.62a36.25,36.25,0,0,1,6.07-9.39c4.11-4.77,8.91-8.93,13.54-13.18q12.72-11.68,25.56-23.27c7.6-6.86,15.18-13.77,22.94-20.45l1.6-1.35-.4-.07c0,9.08.15,18.2-.44,27.27,0,.22.47.14.48,0Z" transform="translate(-0.25)" fill="#231f20"/><rect x="246.76" y="232.35" width="32.1" height="29.9" fill="#231f20" stroke="#231f20" stroke-width="0.25"/><path d="M241,261.41c1.17,1,2.91,1,4.39,1,1.89,0,3.76-.16,5.65-.17,4.84,0,9.68-.16,14.51,0,9.74.22,19.48.92,29.22.71l-1.1-.59c-.06.49-.09.37-.55.64s-1.14.77-.43,1.19,2.15-.11,2.72-.44c.85-.51,1.95-.87,2.09-2,.06-.59-.7-.6-1.11-.59-9.28.21-18.56-.42-27.83-.68-4.49-.12-9-.06-13.48,0-2,0-4,0-6.06.08-1.37.09-3.27.48-4.4-.51-.86-.75-4.39.72-3.62,1.39Z" transform="translate(-0.25)" fill="#231f20"/><path d="M293.42,290.13c-8.19,9.26-14.1,20.46-23.09,29-.62.59.56.58.89.56a4.62,4.62,0,0,0,2.59-.91c9-8.58,14.9-19.75,23.09-29,.55-.62-.49-.59-.89-.56a4.39,4.39,0,0,0-2.59.9Z" transform="translate(-0.25)" fill="#231f20"/><path d="M375.63,308.18c2.49,2.93,5.42,5.43,8.13,8.14a1.18,1.18,0,0,0,1.3.09c.27-.12.82-.57.48-.91-2.71-2.71-5.65-5.21-8.13-8.14-.52-.61-2.37.13-1.78.82Z" transform="translate(-0.25)" fill="#231f20"/><path d="M253,94.12c.54-2-2.38-4.1-3.92-4.68-.39-.15-1.64,0-1.74.57-.27,1.67.71,3.15,1.71,4.4,1.26,1.56,2.79,2.85,4.19,4.27a61.3,61.3,0,0,1,4.66,5.73c4.7,6.06,9.33,12.19,14.18,18.14a83,83,0,0,0,6.55,7.47c.43.42,2.23-.29,1.8-.71-4.72-4.57-8.67-10-12.69-15.22S260,103.83,255.94,98.92c-1.11-1.32-2.45-2.42-3.64-3.65-1.36-1.4-3.37-3.4-3-5.54l-1.74.57c1.27.48,4,2.43,3.55,4.11-.15.58,1.77.3,1.92-.29Z" transform="translate(-0.25)" fill="#231f20"/><path d="M377.58,90.79A90.11,90.11,0,0,1,390,87.88a119.69,119.69,0,0,1,16.32-2.24c1.43-.07,3.88-.35,5,.41l-.19-.71c-.36.62-1,.68-1.63.71-1.13,0-1.47,1.53-.16,1.48a4,4,0,0,0,3.65-1.93.58.58,0,0,0-.19-.71c-1.28-.82-3.06-.78-4.52-.79a61.28,61.28,0,0,0-7.65.6c-5.82.73-11.6,1.8-17.32,3.08a59.66,59.66,0,0,0-6.18,1.61c-1.16.4-.81,1.8.37,1.4Z" transform="translate(-0.25)" fill="#231f20"/><path d="M324.81,84.14c-1.34.12-.89-.57-.29-.89a1.63,1.63,0,0,1,.54-.17c.72-.19,1.45-.32,2.18-.44,2.29-.38,4.59-.63,6.89-.85,5.56-.54,11.15-.9,16.73-1a69.73,69.73,0,0,1,7.23.1l-.35-.19c0,.35.14,0-.14.28s-.6.67-.88,1c-.43.58,1.46.35,1.77-.07s1.18-1,1.18-1.77c0-.13-.28-.18-.35-.19a117.19,117.19,0,0,0-17.27.34c-5.52.37-11.25.65-16.67,1.9a6.84,6.84,0,0,0-2.54,1c-.37.28-1.17.86-.91,1.42s1.58.46,2.07.42c.33,0,1.14-.13,1.29-.49s-.12-.46-.48-.42Z" transform="translate(-0.25)" fill="#231f20"/><path d="M376.16,4.51a2.73,2.73,0,0,1,.46-1.72,4.41,4.41,0,0,1,.63-.92c.15-.17.63-.49.48-.51,1.18.18.15,3.05,0,3.51a66.56,66.56,0,0,1-4.16,9.76,62,62,0,0,1-4.85,7.74c-1.63,2.29-3.11,4.71-4.64,7.07C361,34.24,358,39.14,354.94,44c-2.75,4.3-5.92,8.94-6.67,14.1a.56.56,0,0,0,.42.57c1.27.47,2.34,1.5,3.66,1.8a4,4,0,0,0,3.48-1.13c2-1.66,2.71-4.36,3.58-6.7a.55.55,0,0,0-.37-.76c-3.51-1-10.87.41-9,5.52a.82.82,0,0,0,.88.45c2.72-.13,5-2.08,6.29-4.33.33-.56-.44-.84-.84-.82a5.87,5.87,0,0,0-5.24,5.4c0,.63.72.67,1.16.58,2.24-.43,4.15-2.81,3.2-5.09-.22-.54-.94-.53-1.39-.31A4.27,4.27,0,0,0,351.58,58c.16.68,1.23.46,1.61.18,1.4-1,1.64-2.85,1.66-4.47,0-.7-.94-.75-1.41-.49-1,.54-3.3,2.18-1.64,3.32.71.48,2.4-.49,1.49-1.11-.42-.29.91-1,1-1.08l-1.41-.49c0,1.08,0,2.75-1,3.45l1.61.18A2.73,2.73,0,0,1,355,54.37l-1.4-.3a2.34,2.34,0,0,1-1.63,3.26l1.16.58c.07-1.64,1.3-3.74,3.11-3.84l-.83-.81c-.9,1.52-2.41,3.05-4.27,3.14l.88.45c-1.31-3.58,3.38-4.45,5.95-3.71l-.37-.76c-.67,1.83-1.23,3.91-2.45,5.47-.63.81-1.42,1.5-2.43,1a26.08,26.08,0,0,0-2.87-1.5l.42.57c.76-5.23,4.14-10,6.93-14.32,3.57-5.58,7-11.24,10.63-16.79,1.81-2.78,3.79-5.47,5.54-8.29a66.28,66.28,0,0,0,3.66-7A58.59,58.59,0,0,0,379.25,6c.45-1.27,1.26-3.05.92-4.43-.45-1.85-2.5-2-3.81-1S373.91,3.46,374.23,5c.19.89,2.12.39,1.93-.52Z" transform="translate(-0.25)" fill="#231f20"/><path d="M314.29,310.41c.66,2.86.22,5.06,1.54,8.14s4.18,5.27,4.84,8.57a11.73,11.73,0,0,0-5.5.44c-1.54-4-5.72-2.2-6.82-6.38a31.16,31.16,0,0,1-.88-7.91S311.87,311.29,314.29,310.41Z" transform="translate(-0.25)" fill="#231f20"/><path d="M313.32,310.67c.69,3.11.45,6.23,2,9.12,1.4,2.57,3.71,4.64,4.35,7.59l1.55-.82A13.68,13.68,0,0,0,315,327l1.11.27a5.39,5.39,0,0,0-2.83-2.92c-1.13-.54-2.43-.87-3.24-1.89s-1.07-2.94-1.28-4.35a20.32,20.32,0,0,1-.35-5l-.57.55c2.24-1,4.5-2,6.81-2.86.3-.11.76-.48.5-.83s-1-.17-1.28,0c-2.31.85-4.57,1.85-6.82,2.86-.2.09-.55.29-.58.55a21.36,21.36,0,0,0,.3,4.92,12.21,12.21,0,0,0,1.15,4.5,5.94,5.94,0,0,0,3,2.21,5.21,5.21,0,0,1,3.21,2.81c.17.41.77.35,1.11.27a10.46,10.46,0,0,1,4.77-.42c.44.1,1.7-.13,1.55-.81-.63-2.9-2.82-5-4.27-7.45-1.68-2.9-1.41-6.1-2.1-9.26C315.1,309.43,313.16,309.92,313.32,310.67Z" transform="translate(-0.25)" fill="#231f20"/><path d="M307.34,330.09a26.35,26.35,0,0,1,4.17,0c.44,5.28,3.5,9.65,5.91,14.7-2.06-.71-4.86.1-5.93-.57-4.08-2.56-5.2-9.91-4.15-13.91" transform="translate(-0.25)" fill="#231f20"/><path d="M307.25,330.8a25.78,25.78,0,0,1,3.93,0l-.63-.45c.49,5.38,3.62,9.95,5.91,14.7l1.52-.91a9.8,9.8,0,0,0-3.14-.38,7.09,7.09,0,0,1-2.56-.09c-1.36-.54-2.41-2.36-3-3.62a15.41,15.41,0,0,1-1-9.81c.23-.94-1.75-.72-2,.14a16.17,16.17,0,0,0,1.17,10.52,8.55,8.55,0,0,0,3.33,3.94,5.42,5.42,0,0,0,2.71.37,10.17,10.17,0,0,1,3.3.24c.43.14,1.87-.19,1.52-.92-2.29-4.74-5.42-9.32-5.91-14.7,0-.28-.41-.42-.63-.45a28.48,28.48,0,0,0-4.43,0c-1.11,0-1.48,1.44-.17,1.43Z" transform="translate(-0.25)" fill="#231f20"/><path d="M308.55,322.13c0,3.67-.41,7.33,0,11,0,.16.51.05.48-.13-.41-3.66,0-7.32,0-11,0-.15-.48-.06-.48.13Z" transform="translate(-0.25)" fill="#231f20"/><path d="M312.11,331.48a9.34,9.34,0,0,0,.88-6.4l-.48.13c1.73,6.64,4.14,13.14,4.84,20,0,.11.49,0,.48-.13-.7-6.87-3.11-13.37-4.84-20,0-.13-.51,0-.48.13a9.22,9.22,0,0,1-.88,6.35c-.05.08.4.05.48-.08Z" transform="translate(-0.25)" fill="#231f20"/></g><g id="b3e7192c-cf77-4907-b776-7a625edf9a49" data-name="backplane(grey)"><path d="M292.3,127.47c7.26,1,14.07.55,21.33.88-.33,4.94-1.65,115.1,4.29,135.22,1,3,3.63,8.91,2,12.21-2,3.63-9.24,4.29-13.2,5.6-1.32-7.25-11.87-8.9-12.53-16.82-1-9.56-2.31-19.13-3.3-28.69C289.22,217.07,292.3,127.47,292.3,127.47Z" transform="translate(-0.25)" fill="#666"/><path d="M291.7,127.94c7.14.94,14.35.58,21.54.89l-.57-.34c-.35,5.43-.23,10.93-.28,16.36q-.15,17.21,0,34.42c.09,13.32.29,26.65.72,40,.37,11.17.8,22.39,2,33.51A73.68,73.68,0,0,0,316.73,263c.84,3.27,2.48,6.3,2.71,9.73a4.93,4.93,0,0,1-2.1,4.81,17.75,17.75,0,0,1-5.47,2.06c-1.76.44-3.55.8-5.28,1.36l1.08.16c-1.24-6.23-8.41-8.1-11.38-13.18a11.5,11.5,0,0,1-1.28-4.88c-.29-2.73-.61-5.45-.93-8.17-.64-5.44-1.33-10.87-1.92-16.32-.94-8.55-.83-17.18-.8-25.77,0-11.8.25-23.6.51-35.4q.36-16.6.86-33.2c.11-3.77.23-7.55.35-11.32l.12-3.57a7.91,7.91,0,0,0,.06-1.88.89.89,0,0,1,0-.23c0-.47-1.91-.16-1.93.52q-.24,6.9-.44,13.81-.5,16-.87,32c-.27,12-.5,23.93-.58,35.89-.06,8.52-.22,17.11.37,25.62.67,9.63,2.27,19.22,3.28,28.82a11.2,11.2,0,0,0,1.26,4.64,14.1,14.1,0,0,0,2.82,3.34c2.21,2,4.82,3.61,6.71,5.95a8.9,8.9,0,0,1,1.85,3.88c.07.36.89.22,1.07.15,3.61-1.17,7.48-1.55,10.88-3.32a6.73,6.73,0,0,0,3.34-3.23c.7-1.8.32-4-.12-5.77-.66-2.68-1.86-5.19-2.47-7.88-.36-1.59-.62-3.2-.86-4.81-1.49-10.32-1.91-20.82-2.33-31.23-.54-13.41-.78-26.83-.91-40.25q-.18-18.3,0-36.62c0-6.63,0-13.28.28-19.91,0-.29,0-.3,0-.56s-.32-.34-.57-.35c-7-.3-14.11.06-21.11-.87a1.8,1.8,0,0,0-1.37.37C291.32,127.63,291.23,127.88,291.7,127.94Z" transform="translate(-0.25)" fill="#461853"/><path d="M295.33,268c3.29-3.3,15-9.73,19-6.76,3,2,5.61,11.21,4.62,14.18-2,5.27-8.41,4.62-12.21,5.6-1.65-4.28-7.42-8.57-10.71-12,.65,1.32,2.14,2.47,2.47,3.13" transform="translate(-0.25)" fill="#461853"/><path d="M291.53,127.69c1.65-1.32,10.72-13.53,14-14.35,4.6-.92,10.65.93,10.33,1.76-.77,2-6.54,10.11-7.53,14.24C304.07,128.35,291.53,127.69,291.53,127.69Z" transform="translate(-0.25)" fill="#a7a9ac"/></g><g id="a6a683d5-01be-47e7-a628-fd38fa9255f1" data-name="honeycombs"><path d="M367.5,170.67c-3.08-.22-12.53-2.2-14.73-.66-1.32.88-2.64,7.7-3.3,9.24-1.1,3.3-2.64,6.38-4,9.67a14.25,14.25,0,0,0-2,7c.22,3.3,4.38,25,7.89,26.74s9.7-2.11,13.66-1.67c2.2-4.62,4.18-9.46,5.94-14.3,1.32-4.39,3.52-7.69,2.64-12.09-.88-4.62-2.64-9-3.74-13.19-1.1-3.3-1.32-7.26-2.42-10.34" transform="translate(-0.25)" fill="#231f20"/><path d="M367.83,169.93c-2.89-.23-5.75-.82-8.63-1.09-2.11-.19-5.53-.74-7.27.85a7.23,7.23,0,0,0-1.56,3.16c-.49,1.49-.87,3-1.29,4.54a78.32,78.32,0,0,1-4.6,11.61c-1.3,2.82-2.19,5.49-1.75,8.61.32,2.23.75,4.45,1.21,6.66,1.1,5.34,2.25,10.94,4.54,15.93,1,2.14,2.07,3.57,4.61,3.7,4,.21,7.7-2.47,11.67-2.13a1.23,1.23,0,0,0,1.25-.61c2.08-4.37,3.93-8.84,5.61-13.38.75-2.05,1.51-4.12,2.22-6.18a14.93,14.93,0,0,0,1-5.52c-.21-4.34-2.11-8.66-3.35-12.78a62.3,62.3,0,0,1-1.6-6.29,46.54,46.54,0,0,0-1.41-6.16c-.32-.93-2.25-.4-1.93.52a46.18,46.18,0,0,1,1.41,6.16,59.1,59.1,0,0,0,1.48,5.86c1.21,4.11,3.11,8.39,3.42,12.7a14.49,14.49,0,0,1-1.15,6c-.72,2-1.39,3.91-2.11,5.86-1.63,4.38-3.43,8.7-5.44,12.93l1.26-.61c-3.28-.28-6.38,1.21-9.52,1.87-1.17.25-2.95.53-3.93-.15a4.48,4.48,0,0,1-1.15-1.53,31.24,31.24,0,0,1-2.34-6.17c-.79-2.65-1.46-5.35-2.06-8.05-.54-2.39-1-4.78-1.43-7.19a14.18,14.18,0,0,1-.2-5.76,35.66,35.66,0,0,1,2.5-6.24c.9-2.1,1.85-4.19,2.65-6.34,1-2.57,1.51-5.26,2.39-7.87.28-.83.53-2.16,1.45-2.47a11.23,11.23,0,0,1,4.17-.1c3.09.25,6.15.9,9.24,1.14,1,.08,1.95-1.39.65-1.49Z" transform="translate(-0.25)" fill="#9b823c"/><path d="M311.65,222.29c.33-.82-7.42,26.39-7.09,29,.17,2.14,9.07,19.95,10.06,22.42,1.15,3.14,1.65,3.14,5.11,3,1.82-.16,6.27.5,7.75-.49,1.49-.83,5.77-24.24,5.94-26.72.16-2.31-5.44-27.21-9.57-28C321.05,221,311.65,222.29,311.65,222.29Z" transform="translate(-0.25)" fill="#dda527"/><path d="M312.11,222.34v0l-.51.29h0l-.44-.3a12.31,12.31,0,0,1-.82,3.08c-.65,2.41-1.31,4.81-2,7.22-1.41,5.25-2.87,10.51-3.94,15.84a7.81,7.81,0,0,0-.27,3.52,40.3,40.3,0,0,0,2.56,6.15c2.29,5,4.8,10,7.06,15,.9,2,1.31,3.88,3.83,4,1.65.06,3.29-.06,4.94,0a11.58,11.58,0,0,0,4.69-.39c1.28-.53,1.52-2.17,1.87-3.36.73-2.53,1.29-5.11,1.83-7.68,1.08-5.09,2.16-10.23,2.85-15.39a11.46,11.46,0,0,0-.23-3.45c-.45-2.49-1-5-1.63-7.42-1.33-5.32-2.7-11.11-5.48-15.89-.89-1.53-1.73-2.41-3.54-2.48a58.54,58.54,0,0,0-9.16.65l-2.08.27c-.52.08-.75.77-.1.68,2.16-.3,4.33-.55,6.5-.73a35.58,35.58,0,0,1,4.5-.19,2.36,2.36,0,0,1,1.93.71c1.41,1.48,2.19,3.68,2.91,5.55,1,2.65,1.85,5.38,2.61,8.12s1.4,5.31,2,8a30.43,30.43,0,0,1,.9,5.1,18.75,18.75,0,0,1-.49,3.8q-.65,3.84-1.4,7.65c-.56,2.87-1.14,5.73-1.8,8.57a41.57,41.57,0,0,1-1.66,6c-.32.8-.5.95-1.42,1.1a31.5,31.5,0,0,1-5.32,0c-1.26,0-2.95.43-4.11-.15s-1.33-1.91-1.74-2.88c-2-4.63-4.33-9.1-6.44-13.66-1.05-2.26-2.12-4.52-3-6.85a5.29,5.29,0,0,1-.34-3.14c.77-4.7,2.11-9.35,3.33-14,1.12-4.24,2.3-8.47,3.43-12.71a3.47,3.47,0,0,0,.19-.77c0-.23-.23-.32-.44-.3a.67.67,0,0,0-.52.31C311,222.74,312,222.72,312.11,222.34Z" transform="translate(-0.25)" fill="#ffe783"/><path d="M352.75,91.51c1.67,4.23,5.26,21.17,5.82,24.83,2.77.59,8.24,1.17,12.82,1.81,1.59-3.84,9.5-18.06,10.54-20-.92-4.51-4.25-22.73-4.34-26.8-1.62-.22-12.65-3-14.16-3.58C363.43,67.74,354.47,89.91,352.75,91.51Z" transform="translate(-0.25)" fill="#c29435" stroke="#ffe783" stroke-width="0.5"/><path d="M337.05,92.4c-1.15,3.47-8.06,18.29-9.83,21.8,1.69,1.53,5.15,25.76,4.74,27,1.82.37,14,3.16,16.14.36,5.16-6.61,10.88-23.58,10.06-26.39-1.48-5-5-22.63-5.73-23.26C351.33,90.94,337.05,92.4,337.05,92.4Z" transform="translate(-0.25)" fill="#c29435" stroke="#ffe783" stroke-width="0.5"/><path d="M395.54,170.67c1.65.33,16.34,1,17.81.66,3.19-.66,10.77-22.86,10.88-23-1.87-4.18-9.07-23.2-9.51-25-3.3-.44-10.22-.66-14.68-1-1.73-.13-11.43,21-10.66,24.08C390.37,151,395.54,170.67,395.54,170.67Z" transform="translate(-0.25)" fill="#c29435"/><path d="M395.23,170.91a48.51,48.51,0,0,0,6.38.45c3,.15,6,.27,9.05.29,1.34,0,2.82.2,3.87-.78,1.45-1.34,2.36-3.45,3.21-5.19A163.15,163.15,0,0,0,424,150.33c.22-.59.49-1.19.65-1.79.12-.45-.09-.75-.33-1.31-1-2.51-2-5-3-7.58q-2-5.13-3.9-10.29c-.74-2-1.62-4-2.16-6.09,0-.07-.12-.1-.18-.1-3.56-.46-7.19-.55-10.78-.75a19.78,19.78,0,0,0-4.2-.23,1.92,1.92,0,0,0-1.08.68,19.59,19.59,0,0,0-2.61,4.17c-1.2,2.25-2.29,4.56-3.33,6.88s-2,4.72-2.88,7.14a17.11,17.11,0,0,0-1.28,5,18.28,18.28,0,0,0,1,4.6c.64,2.59,1.3,5.17,2,7.76q1.59,6.21,3.22,12.42c.08.29,1.05,0,1-.26q-1.39-5.32-2.78-10.67-1.07-4.12-2.1-8.25a41.76,41.76,0,0,1-1.3-5.41c-.18-1.51.57-3.27,1.05-4.67.83-2.47,1.83-4.89,2.88-7.27s2.16-4.76,3.38-7.07c.5-.94,1-1.88,1.58-2.78a6,6,0,0,1,1.21-1.68c.31-.22.38,0,1,0l2.93.18c2,.11,4,.2,5.94.33.86.06,1.71.11,2.57.19.4,0,1.66,0,1.92.21s.42,1.27.54,1.61c1.75,5,3.65,9.88,5.55,14.79.88,2.29,1.77,4.57,2.71,6.84a7.6,7.6,0,0,1,.67,1.61,4.93,4.93,0,0,1-.4,1.09c-1.56,4.29-3.16,8.58-5,12.77a53.14,53.14,0,0,1-3.22,6.56,9.1,9.1,0,0,1-1.38,1.88c-.43.42-.52.36-1.17.38a141.34,141.34,0,0,1-14.84-.53,15.44,15.44,0,0,1-1.91-.19C395.58,170.39,394.72,170.81,395.23,170.91Z" transform="translate(-0.25)" fill="#ffe783"/><path d="M371.39,118.15c.54,1.91,3.86,23.78,4.69,27.68,3.52.23,9.41.24,12.64.33,3.85.11,12.78-21.9,12.86-23-1.23-2.54-6.19-25.07-7.49-25.28-2.18-.34-10.51-.44-11.89.08C380.91,101.85,371.39,118.15,371.39,118.15Z" transform="translate(-0.25)" fill="#c29435" stroke="#ffe783" stroke-width="0.5"/><path d="M358.49,116.47c-2.31,10.56-12.18,26.27-12,26.22,2.14,4.79,3.78,25.24,6.1,26.88,1.08.77,12.82.07,15,0,1.16-4.38,9.78-19.87,8.74-24.4-2-8.63-3.14-18.64-5.12-27.54C367.23,118.12,358.49,116.47,358.49,116.47Z" transform="translate(-0.25)" fill="#d89e42" stroke="#ffe783" stroke-width="0.5"/><path d="M423,196.08c0-.26-7.16,20.92-8.63,24.73-6.38.11-13.31.82-19.39.52,0-.91-9.4-21.06-11.95-25.37,2.93-4.45,12-24.08,12.1-25.4,3.85.11,17.57.81,19.79.11C414.89,170.67,421.69,192.74,423,196.08Z" transform="translate(-0.25)" fill="#dda527" stroke="#ffe783" stroke-width="0.5"/><path d="M395.1,221.58c.11,2.07-9.77,22.55-10.45,23.63,1.46.49,14.18,21.11,17.15,24.44,2.08,0,10.2.31,11.88,0,2.75-.55,10.46-22.13,10.81-23.38-2.57-3.55-9.79-24.64-10.26-25S395.1,221.58,395.1,221.58Z" transform="translate(-0.25)" fill="#c29435" stroke="#ffe783" stroke-width="0.5"/><path d="M395.46,171.11c.09-.65-5.8-24-6-24.29-.34-.58-11.52-.38-12.66-.73,0,2.18-8.48,22.13-9.23,23.24-.24.35,3.36,26.09,5.88,26.63a41.33,41.33,0,0,0,9.62.33S395.28,172.58,395.46,171.11Z" transform="translate(-0.25)" fill="#c29435" stroke="#ffe783" stroke-width="0.5"/><path d="M373.85,246c-.22,2.27-6.52,25.68-6.13,26.66.81,2,9.92,21.69,10.27,22.64,1.49.28,11.53,0,14.65.27,0-2.65,9.5-25.18,9.06-25.71-1.13-1.38-16.66-24-17.32-24.69C384.38,245.16,377.34,245.93,373.85,246Z" transform="translate(-0.25)" fill="#c29435" stroke="#ffe783" stroke-width="0.5"/><path d="M382.91,195.77a46.46,46.46,0,0,0-9.42.19c-.84,6.13-5.63,12.76-6.8,18.78-.81,4.18-1.91,5.76-.23,9.83,1.79,4.32,6.87,20.06,7.69,20.86,2.88-.59,8.29.72,10.89-.66,1.54-.82,9.54-21.09,9.69-23.49C394.85,219.24,382.91,195.77,382.91,195.77Z" transform="translate(-0.25)" fill="#dda527" stroke="#ffe783" stroke-width="0.5"/><path d="M365.25,221.19c-4.95.83-9.22,1.13-13.83,1.51-.59,2.82-5.93,24.21-6,25.39-.09,2.15,10,24.11,11.39,25.53,3.47-.65,7.29-.38,10.23-1.14,2.7-.7,5.36-20.55,7.23-27.05C374.94,243.15,365.25,221.19,365.25,221.19Z" transform="translate(-0.25)" fill="#d89e42" stroke="#ffe783" stroke-width="0.5"/><path d="M328,276.27c.67,6.14,5.62,22.64,7.73,23.09,1.81.39,11.73.89,13.21,1,2.18.14,6.57-18,7.92-25.72.47-2.71-9.92-24.7-11.22-25.57-1.48-1-10.24-.71-12.34-.64C333.27,249.57,328,276.27,328,276.27Z" transform="translate(-0.25)" fill="#c29435" stroke="#ffe783" stroke-width="0.5"/><path d="M356.53,273.67c-1.78,5.3-7.87,25.87-7.32,27,.45,1,10.41,21.34,11.7,22.12s12-.27,15.94-.55c0-1.5,1.53-23.44,1.53-27.15-2.74-5.39-9.67-20.67-10.66-22.76C367.72,272.37,360.18,273.2,356.53,273.67Z" transform="translate(-0.25)" fill="#c29435" stroke="#ffe783" stroke-width="0.5"/><path d="M316.54,114.6c-5.18.2-9.83,19.26-9.9,26.06,0,3.76,3.57,19.46,4.29,23.35.78,4.23,1.36,3.65,5.71,4.21,2.53.32,5.05.59,7.51.69.23-2.18,7.6-25.71,7.81-27.73.24-2.32-3.87-22.84-4.46-27Z" transform="translate(-0.25)" fill="#dda527" stroke="#ffe783" stroke-width="0.5"/><path d="M330.12,195.63a141.55,141.55,0,0,0,14.51.11c.33-1.65,8.06-25.89,7.48-25.51.14-3.37-4.78-25.59-5.5-27-1-2.06-10.22-.88-14.65-1.64-.14,2.09-7.4,26-7.56,27.48C324.19,171,330.12,195.63,330.12,195.63Z" transform="translate(-0.25)" fill="#d89e42" stroke="#ffe783" stroke-width="0.5"/><path d="M312.22,167.48c-.51,6.21-6.81,22.23-7.72,24.72-.35,1,6.84,28,6.84,29.7,2.63-.37,11.67-.16,13.16-.67,0-1.12,6.48-24.35,6.39-25.16-.12-1.08-7.2-25.5-6.92-26.83C324,169.24,314,167.57,312.22,167.48Z" transform="translate(-0.25)" fill="#dda527" stroke="#ffe783" stroke-width="0.5"/><path d="M324.72,221.15c0,.32,8.3,27.52,8.81,27.47,1.34-.12,11.13.16,11.54-.22.24-.21,6.45-24.94,6.38-25.94,0-.25-5.57-24.85-6.82-26.72-2.54.52-11-.08-11.87,0-1.67.17-2.23,1.83-2.78,3.61C329.61,200.55,324.72,221.15,324.72,221.15Z" transform="translate(-0.25)" fill="#d89e42" stroke="#ffe783" stroke-width="0.5"/></g><g id="f3089be7-34e6-4e5f-9287-fd6bb6e4fd00" data-name="honeycombs outline"><path d="M376.89,69.93q.78,5.8,1.93,11.56c.5,2.51.89,5,1.45,7.52.66,2.9,1.37,5.78,1.81,8.71,0,.18.3.19.43.18a45.18,45.18,0,0,1,7.54.07c1.71.19,4.74-.29,5.47,1.73.37,1,.53,2.17.83,3.24.55,2,1.2,4,1.76,6.07,1.21,4.39,2.34,8.81,3.84,13.12.06.17.28.18.43.18,2-.06,4-.26,6.06-.33a11.62,11.62,0,0,1,5.55.76,3.51,3.51,0,0,1,1.89,1.84c.35.93.43,2,.75,2.91a43.07,43.07,0,0,0,1.77,4.21c2.77,6,7,12.71,5.76,19.56A33.26,33.26,0,0,1,419.67,162c-.9,1.55-1.84,3.07-2.72,4.63-.49.85-1.86,2.62-1.63,3.56a13.58,13.58,0,0,0,.66,1.53c.32.86.61,1.74.89,2.62.76,2.34,1.47,4.69,2.17,7,1.36,4.56,2.6,9.16,4.18,13.65.11.31.23.63.35,1,.24.58,0,.85-.27,1.44-.69,1.37-1.39,2.75-2,4.16-.81,1.84-1.4,3.77-2.07,5.67-1,2.87-2.08,5.74-3.08,8.62-.5,1.43-1.11,2.88-1.47,4.35-.12.5-.05.46.16.86a1.45,1.45,0,0,1,.19.53c.05.22.05.46.1.68a22.44,22.44,0,0,0,1.84,4.38c.8,1.69,1.5,3.39,2.17,5.13,1.33,3.49,2.69,7,3.91,10.53a15.2,15.2,0,0,1,1,4.69,16.16,16.16,0,0,1-1.39,6.12c-1.38,3.45-3,6.89-4.63,10.23-.41.84-.85,1.67-1.28,2.51a11.12,11.12,0,0,1-1.93,3.14c-.8.74-1.79.59-2.79.51a27.92,27.92,0,0,0-4.29-.09,29.09,29.09,0,0,1-5.9.08c-.43-.06-1,.54-.36.63a27.85,27.85,0,0,0,5.7-.06,33.82,33.82,0,0,1,4.83.09,4.27,4.27,0,0,0,4.53-2.15,58.75,58.75,0,0,0,3.16-6.17c1.71-3.68,3.75-7.46,4.82-11.4a12,12,0,0,0,.26-5.73,35.85,35.85,0,0,0-1.3-4c-1.37-3.83-2.76-7.67-4.3-11.43-.73-1.76-1.62-3.45-2.38-5.19a12,12,0,0,1-.73-1.92c-.11-.45,0-.9-.15-1.32-.06-.24-.34-.32-.31-.71a4.19,4.19,0,0,1,.29-.91c.25-.76.51-1.52.77-2.28q.87-2.52,1.77-5c.92-2.57,1.84-5.15,2.73-7.73a63,63,0,0,1,3.31-7.3c.38-.75,0-1.26-.31-2s-.62-1.84-.91-2.76c-.79-2.5-1.53-5-2.28-7.54-1.35-4.54-2.52-9.23-4.29-13.64-.1-.25-.23-.5-.32-.75-.17-.44-.2-.39.06-.87.9-1.64,1.77-3.28,2.73-4.89a52.84,52.84,0,0,0,5.14-10.18,16.79,16.79,0,0,0,.37-10.11,63.94,63.94,0,0,0-4.17-10.19c-.76-1.59-1.53-3.19-2.21-4.81-.29-.69-.58-1.39-.81-2.1a23.67,23.67,0,0,0-.8-3c-1.25-2.72-5.49-2.74-8-2.67-2.09.07-4.17.29-6.26.35l.43.18c-1.25-3.59-2.24-7.26-3.24-10.92-.89-3.25-2-6.46-2.74-9.74-.28-1.18-.43-2.64-1.67-3.21-1.6-.74-3.72-.54-5.43-.73a44.63,44.63,0,0,0-7.22,0l.43.18c-.44-2.93-1.16-5.81-1.81-8.7-.56-2.5-1-5-1.45-7.53q-1.14-5.74-1.94-11.56c-.05-.38-1-.15-1,.26Z" transform="translate(-0.25)" fill="#d89e42"/><path d="M360.19,323.7c1.85-.31,3.62.19,5.45.41a14.22,14.22,0,0,0,3.91-.15c1.25-.19,2.5-.35,3.76-.48.84-.08,2.24-.41,3.05-.06.23.11.73.08.83-.22,1.79-4.87,2-10.48,1.78-15.6a81.8,81.8,0,0,1-.31-8.43,6.66,6.66,0,0,1,.47-2.77c0,.06-.33.07.06,0a8.92,8.92,0,0,1,.9,0c3.66.11,7.32.32,11,.28.7,0,2.12.19,2.62-.48a5.66,5.66,0,0,0,.42-1.45c.17-.6.36-1.2.55-1.79.42-1.32.86-2.64,1.31-3.95,2.15-6.23,4.66-12.42,6.21-18.84.1-.42-.88-.29-1,.1a172.12,172.12,0,0,1-5.36,16.38c-1,2.72-1.9,5.43-2.72,8.19-.07.25-.43,1.31-.15,1.11-.08.06-.32,0-.41.05-.76.06-1.52.05-2.28,0-3.55,0-7.09-.26-10.64-.31-1.06,0-1.48.34-1.72,1.41a25.12,25.12,0,0,0-.21,7.09c.47,6.17.73,12.9-1.44,18.84l.83-.23a4.89,4.89,0,0,0-2.19-.17c-1.45.07-2.89.26-4.33.45a16.92,16.92,0,0,1-4.82.26,18,18,0,0,0-5.47-.38c-.5.09-.77.76-.11.64Z" transform="translate(-0.25)" fill="#d89e42"/><path d="M305.24,140.5a126,126,0,0,0,2.39,14.29c.91,4.76,1.86,9.51,2.88,14.24.15.66,1.6.28,1.45-.39-1-4.73-2-9.48-2.88-14.24a125.66,125.66,0,0,1-2.39-14.29c-.05-.65-1.51-.31-1.45.39Z" transform="translate(-0.25)" fill="#9b823c"/><path d="M377.36,69.72a125.34,125.34,0,0,1-14.18-2.14c-.69-.16-2.09.18-2.35.94-2.73,8.09-7.25,15.4-10.55,23.25l2-1a78.28,78.28,0,0,1-11.66-.28c-1.94-.15-4.26-.14-5.46,1.66a25.63,25.63,0,0,0-2.08,4.24,49,49,0,0,0-2.32,6.86c-.6,2.33-.93,4.72-1.69,7A7.94,7.94,0,0,1,327,114a1.38,1.38,0,0,1-.26.17c-.05,0-.56,0-.84.05-1.23,0-2.47.07-3.71.07a48,48,0,0,1-6.68-.25c-.66-.08-2.14.14-2.34.94-2.16,8.52-5.7,16.62-8.08,25.07-.27.93,2.62.52,2.88-.4,2.39-8.45,5.93-16.55,8.08-25.07l-2.34.94a60.55,60.55,0,0,0,12,.18c3.16-.22,5-2.42,6-5.23a55.14,55.14,0,0,0,1.71-6.81,47.4,47.4,0,0,1,2.24-7,25.77,25.77,0,0,1,2.19-4.59c.31-.46.14-.25-.12-.14s.19,0,0,0h.73c1.5.06,3,.27,4.51.37a60.21,60.21,0,0,0,8.17,0c.67,0,1.72-.25,2-1,3.3-7.85,7.82-15.16,10.55-23.25l-2.34.94a125.34,125.34,0,0,0,14.18,2.14,2.69,2.69,0,0,0,2.05-.55c.39-.37.4-.85-.25-.93Z" transform="translate(-0.25)" fill="#ffe783"/><path d="M303.92,193.85a278.48,278.48,0,0,0,6.26,29.68c.11.4,1.56,0,1.45-.39a278,278,0,0,1-6.26-29.68c-.06-.38-1.52-.06-1.45.39Z" transform="translate(-0.25)" fill="#9b823c"/><path d="M310.29,169.1c-2.1,8.07-3.79,16.32-6.93,24.08-.37.9,2.51.57,2.9-.37,3.14-7.76,4.82-16,6.92-24.08.27-1-2.64-.6-2.89.37Z" transform="translate(-0.25)" fill="#ffe783"/><path d="M315.81,277.61a35.55,35.55,0,0,1,6.36-.06,26.4,26.4,0,0,0,6.28-.38c.17,0,.84-.17.85-.41s-.42-.2-.59-.17c-4.19.81-8.43-.1-12.64.44-.17,0-.84.17-.85.41s.42.19.59.17Z" transform="translate(-0.25)" fill="#9b823c"/><path d="M303.56,252.39c3.41,8.55,9.25,16.18,11.65,25.12.16.58,1.61.19,1.45-.39-2.4-8.94-8.24-16.57-11.65-25.12-.23-.57-1.66-.15-1.45.39Z" transform="translate(-0.25)" fill="#9b823c"/><path d="M348.09,300.93c3,7.84,7.05,15.3,10.66,22.87.24.5,1.66,0,1.45-.39-3.61-7.57-7.68-15-10.66-22.87-.2-.51-1.63-.08-1.45.39Z" transform="translate(-0.25)" fill="#9b823c"/><path d="M308.37,224.19c-1.95,9.07-2.8,18.36-4.95,27.38-.32,1.38,2.64,1,2.94-.23,2.14-9,3-18.31,4.94-27.38.3-1.39-2.66-1-2.93.23Z" transform="translate(-0.25)" fill="#ffe783"/><path d="M334.11,300.77c4.9,0,9.8.91,14.7.31.2,0,.82-.18.83-.45s-.4-.26-.6-.24c-4.77.59-9.56-.32-14.34-.35-.27,0-.82.11-1,.38s.13.34.37.35Z" transform="translate(-0.25)" fill="#9b823c"/><path d="M327.86,277.07a68.47,68.47,0,0,0,2.35,11.85,95.86,95.86,0,0,0,3.91,11.68c.27.63,1.7.21,1.45-.39a95.86,95.86,0,0,1-3.91-11.68,68.47,68.47,0,0,1-2.35-11.85c-.06-.63-1.51-.29-1.45.39Z" transform="translate(-0.25)" fill="#9b823c"/></g><g id="fa830950-fe61-428d-bf36-3c2d737cca0a" data-name="primary mirror point"><path d="M358.16,174.52c-2.64,3.63-7.08,7-7.92,10.89-2,9.23-2.64,16.49,1.65,23.74,4.29,6.6,8.13,7.15,15.83,4.62,6.92-2.27,18.14-3,25.07-5.28-5.28-4.94-5.83-24.18,1.76-26.49-9.57-2.64-24.52-5.83-36.06-7.81" transform="translate(-0.25)" fill="#231f20"/><path d="M357.25,174.46c-1.79,2.42-4.05,4.44-5.86,6.84s-2.36,5.11-2.89,8.11c-1,5.73-1.3,11.72,1,17.19,1.73,4.09,4.84,8.4,9.53,9.07a16.63,16.63,0,0,0,6.68-.69c2.65-.72,5.23-1.56,7.93-2.09,6.41-1.28,13.06-1.8,19.3-3.84.24-.08,1.17-.53.74-1a12.25,12.25,0,0,1-2.93-5.71,28.68,28.68,0,0,1-.94-7.82,23.16,23.16,0,0,1,1.17-7.44c.64-1.79,1.77-3.94,3.72-4.57.46-.15,1.32-.89.42-1.14-11.84-3.26-23.95-5.72-36.06-7.8a1.46,1.46,0,0,0-1.36.36c-.23.29-.26.71.21.79,12.1,2.08,24.21,4.55,36.06,7.8l.43-1.13c-3.77,1.22-5.4,5-6.09,8.66a28.84,28.84,0,0,0,.68,13.41,12.25,12.25,0,0,0,2.91,5.38l.74-.95c-5.17,1.69-10.66,2.29-16,3.22a76.68,76.68,0,0,0-7.66,1.63,37.51,37.51,0,0,1-7.06,1.73c-4.77.37-8.09-3.41-10-7.38-2.44-5.06-2.56-10.6-1.77-16.06.47-3.19.84-6.53,2.74-9.21s4.28-4.73,6.19-7.29c.29-.39-.25-.63-.55-.67a1.47,1.47,0,0,0-1.27.55Z" transform="translate(-0.25)" fill="#231f20"/><path d="M351.66,187.63c4.34.58,8.7.25,13.06.33a91.71,91.71,0,0,1,12.9,1.52c2.25.36,4.46.84,6.69,1.29.53.1,2.88.26,2.88,1,0,.38-2.17-.07-2.55-.15a34.16,34.16,0,0,1-4.81-1.66,56.27,56.27,0,0,0-11.55-2.58c-.92-.12-2,1.19-.68,1.37a51.32,51.32,0,0,1,12.29,2.92c2.16.86,6.13,2.58,8.44,1.14a1.37,1.37,0,0,0,.12-2.41c-1.11-.76-2.68-.81-4-1.09a146.65,146.65,0,0,0-15-2.45c-5.7-.63-11.45.19-17.14-.58-.92-.12-2,1.19-.68,1.37Z" transform="translate(-0.25)" fill="#a29381"/><path d="M354.39,214.38c11.76-1.94,23.29-5.09,35.07-6.92.89-.14,1.62-1.22.28-1-11.78,1.83-23.31,5-35.07,6.93-.3.05-1.07.23-1.1.63s.54.42.82.37Z" transform="translate(-0.25)" fill="#5d6266"/><path d="M392.13,181.83c-4.45,3.14-5.48,11.35-4.95,15.92.41,3.54,1.63,12.95,5.94,11.54,10.3-3.38,9.4-4.45,10.88-9,1.29-3.92.74-8.24.33-12-.21-2-.33-2.63-2.31-4.12C402,184.14,394.6,180,392.13,181.83Z" transform="translate(-0.25)" fill="#161616"/><path d="M393,181.34c4.84.11,9,8.23,9.12,11.87.33,8.47-4.28,11.66-6.7,15.28,2.53.44,6.92-3.29,7.91-5.38a23.94,23.94,0,0,0,2.31-11.66c-.55-6.59-4.51-8-7.8-9.56A9.62,9.62,0,0,0,393,181.34Z" transform="translate(-0.25)" fill="#231f20"/><path d="M394.92,182.29c2.29.52,3.73,2.82,4.68,4.8a21.71,21.71,0,0,1,2,6.83,15.2,15.2,0,0,1-1.43,7.47c-1.12,2.67-2.78,5.45-5.36,6.93-.57.32.26.55.61.35,2.66-1.51,4.42-4.32,5.59-7.06a15.91,15.91,0,0,0,1.58-7.72,21.31,21.31,0,0,0-2.27-7.59c-1-2-2.5-4.07-4.8-4.59-.36-.08-1.15.45-.58.58Z" transform="translate(-0.25)" fill="#4c483b"/><path d="M404.22,195.52c0,4.8-2.16,8.69-4.84,8.69s-4.83-3.89-4.83-8.69,2.16-8.68,4.83-8.68S404.22,190.72,404.22,195.52Z" transform="translate(-0.25)" fill="#2b221a"/></g><g id="a31eb286-b1ec-4acc-a812-010ae4db7f1d" data-name="secondary mirror"><path d="M641.48,194.72c0,11.2-5.82,21.14-10.34,21.14s-5.06-9.47-4-21.09c1.06-11.15,4.49-19.37,9-19.37S641.48,183.51,641.48,194.72Z" transform="translate(-0.25)" fill="#395765" stroke="#636466"/><path d="M633.9,214.55c1.48-.19,5.21-3.13,6-5.59,1-3.13,3.33-26.12,2.78-28.81-.39-1.9-3.06-4.35-5-4.71" transform="translate(-0.25)" fill="#ccc" stroke="#c4c9d1" stroke-width="0.5"/><path d="M629.51,194.11a81.49,81.49,0,0,0-.15,10.71c.22,2.41,0,7.55,2.39,9.15,7.6,5.12,9.89-24.17,9.58-28.41-.22-3.13.21-7.84-3.27-9.37-1.83-.81-2.38-.12-3.62,1.37-1.49,1.8-1.36,2.32-2.89,5.86C631.55,183.42,629.67,190.52,629.51,194.11Z" transform="translate(-0.25)" fill="#ededed" stroke="#c4c9d1" stroke-width="0.5"/><path d="M633.77,209.07c2.31-.66,2.49-3.56,2.93-5.55,1.16-5.29,1-10,1.11-15.33" transform="translate(-0.25)" fill="none" stroke="#d9d9d9" stroke-width="0.5"/><path d="M633.77,206.08c1,.28,1.75-6,1.16-7.41-.3,1.87-1.29,3.63-1.5,5.5" transform="translate(-0.25)" fill="none" stroke="#fff" stroke-width="0.5"/><path d="M632.57,189.4a3.87,3.87,0,0,1,.08-1.85,13.35,13.35,0,0,1,.81-2.38,14.52,14.52,0,0,1,1.23-2.3,5.65,5.65,0,0,1,1.36-1.56,1.42,1.42,0,0,1,.25-.12c-.08,0-.06,0,0,0a1,1,0,0,1,.48.47c.17.31,1.1,0,1-.26-.81-1.52-2.54-.32-3.31.6a14,14,0,0,0-2.62,5.18,4.8,4.8,0,0,0-.21,2.46c.08.31,1,.05,1-.26Z" transform="translate(-0.25)" fill="#fff"/><path d="M317.7,281.78c1.13,2.5,4.27,3.18,6.72,3.47a54,54,0,0,0,12.83-.41c11.45-1.4,22.76-4.22,33.92-7.1,11.81-3,23.54-6.42,35.25-9.85,7.79-2.28,15.57-4.56,23.41-6.67q12.18-3.29,24.35-6.63L488,245.27l39.2-10.81,40.43-11.14q18.5-5.08,37-10.15,14.72-4,29.45-8l5.63-1.51c1.25-.33,4.7-1.49,4.28-3.34s-4.36-1-5.37-.75q-13.32,3.56-26.62,7.2-17.55,4.78-35.08,9.61l-39.4,10.85L498,238.13q-17.76,4.91-35.54,9.79-13.69,3.77-27.39,7.5c-6.74,1.83-13.49,3.63-20.19,5.59-10.84,3.16-21.67,6.36-32.55,9.37-6,1.65-12,3.25-18.06,4.74-2.89.71-5.78,1.4-8.69,2.05l-2,.43-1,.21-.8.17c.8-.16-.27.06-.46.1l-.95.19-2,.39q-3.69.7-7.39,1.25c-1.13.16-2.27.31-3.41.43l-1.47.15c-.32,0,1.15-.08.25,0l-.8.06c-.93.06-1.87.1-2.8.1-.39,0-.78,0-1.17,0a2.15,2.15,0,0,0-.56,0c.3-.15,1,.09.26,0s-1.38-.15-2.06-.27c-.87-.14.71.26-.08,0l-.77-.27c-.43-.16-.64-.44-.09,0-.17-.13-.37-.23-.54-.38s-.25-.3-.39-.41.23.49,0-.08c-.78-1.74-4-1.15-5.38-.75-.9.26-5,1.66-4.28,3.34Z" transform="translate(-0.25)" fill="#231f20"/><path d="M362,43c-.19-.22-.36-.46-.53-.7-.06-.08-.11-.18-.17-.27.19.3,0,0,0,0s.09-.5-.05-.09a1.29,1.29,0,0,1-.49.65,3.27,3.27,0,0,1-.72.3c-.24.15-.22,0,0,0,.51,0-.43-.06-.11,0s.57.05.85.09l.46.07.26,0c.37.07-.46-.1-.08,0a98.91,98.91,0,0,1,14.63,5.17c8.13,3.33,16.14,6.95,24.12,10.62,10.34,4.76,20.61,9.66,30.86,14.62Q448.95,82.18,466.72,91q18.81,9.36,37.55,18.88t37.24,19q17.19,8.85,34.32,17.79,14.49,7.56,28.93,15.2,10.53,5.56,21,11.23l3.66,2a2.64,2.64,0,0,0,2.77-.25c.57-.43,1.09-1.45.23-1.93-6.35-3.48-12.74-6.89-19.13-10.29q-13.86-7.38-27.79-14.65-16.9-8.85-33.87-17.6Q533,120.82,514.26,111.3,495.14,101.57,476,92q-18.27-9.14-36.63-18.08c-10.81-5.26-21.66-10.47-32.56-15.54-8.48-3.94-17-7.82-25.62-11.45a128.44,128.44,0,0,0-16.22-6,13,13,0,0,0-4.67-.65c-1.48.16-3.38,1.19-2.78,2.94a5.13,5.13,0,0,0,1,1.53c1.09,1.29,4.77-.22,3.54-1.67Z" transform="translate(-0.25)" fill="#231f20"/><path d="M635.52,212.75q-8.35,3.48-16.73,6.89-12.59,5.16-25.18,10.25-15.71,6.36-31.43,12.65-17.37,6.94-34.77,13.79-17.94,7.05-35.93,14-17.19,6.6-34.45,13c-10.13,3.75-20.27,7.44-30.47,11q-6.48,2.26-13,4.41c-1.91.63-3.82,1.24-5.74,1.85.52-.17.47-.15,0,0l-.73.23-1.35.42-2.54.77c-2.88.86-5.78,1.68-8.7,2.4-.61.15-1.24.26-1.84.43.91-.26.38-.09-.12,0l-.76.15c-.49.1-1,.19-1.48.27l-.64.1c-.82.13.7-.07,0,0l-1.08.09c-.67.05.38,0,.12,0h-.43c-.12,0-.25,0-.36,0,.57,0,.44.1.14,0-.57-.18.14.15-.17-.05s-.07,0-.1-.07a.63.63,0,0,1-.06-.38c-.09.46,0-.06.12-.21s.51-.69.19-.33a17,17,0,0,1,1.4-1.42c1-.88-.88-1-1.38-1a6.8,6.8,0,0,0-3.88,1.4c-.81.72-2,1.69-2.21,2.81-.27,1.31,1.31,1.58,2.28,1.67a21.58,21.58,0,0,0,5.61-.47c2.66-.48,5.29-1.13,7.9-1.83,7.46-2,14.8-4.4,22.12-6.86,9.69-3.26,19.33-6.7,28.94-10.2q17-6.2,33.82-12.64,18.13-6.9,36.22-14t35.92-14.17q16.44-6.54,32.87-13.17,13.69-5.53,27.37-11.11,9.66-3.94,19.32-7.94l3.16-1.31c.51-.21,2.4-.89,1.72-1.7s-3.12,0-3.74.31Z" transform="translate(-0.25)" fill="#231f20"/><path d="M628.28,217.4c1.3-.94,19.57-.44,18.91-26.18-.2-7.76-2.92-13.8-9-16.43-3.69-1.58-8.57-2.54-10.84-3.48-4.07-1.71-2.1-.11-1.36.68,4.37,4.68,8.36,3.41,11.22,7.37,6.11,8.47,3.93,13.9,4.51,19.68.43,7-4.4,11.76-9.46,16.82" transform="translate(-0.25)" fill="#231f20"/><path d="M628.9,217.75c-.09.07-.34.11.08,0s.56-.13.85-.18c.79-.17,1.59-.33,2.38-.54a22.37,22.37,0,0,0,6.58-2.89c6.76-4.47,9.15-12.56,9.37-20.3.15-5.17-.39-10.73-3.53-15-3.28-4.51-8.76-5.7-13.84-7.15-1.12-.33-2.22-.69-3.31-1.12a4.51,4.51,0,0,0-2.71-.55c-1.73.48-.42,1.64.27,2.35a19.84,19.84,0,0,0,7.07,4.39,10.59,10.59,0,0,1,3,1.73,15.06,15.06,0,0,1,2.9,4,20.4,20.4,0,0,1,2.57,8.74c.15,2.42-.09,4.84,0,7.27a14.91,14.91,0,0,1-2.34,9.34,48.2,48.2,0,0,1-6.87,7.83c-.82.82,1.06.95,1.58.42,3.8-3.79,8.12-7.86,9.34-13.31.54-2.4.16-4.81.19-7.24a45.37,45.37,0,0,0-.14-6.17,20.55,20.55,0,0,0-2.35-7.23c-1.27-2.37-2.75-4.59-5.2-5.83s-4.93-1.88-7-3.72a20.74,20.74,0,0,1-1.7-1.68c-.09-.1-.24-.35-.35-.4l-1.06.68.31.08a13.69,13.69,0,0,0,1.51.56c4.75,1.9,10.48,2.2,14.43,5.76s5.07,8.78,5.21,13.75c.22,7.67-1.25,16.59-7.78,21.51a18.79,18.79,0,0,1-6.65,3.12c-1.26.33-3,.35-4.12,1.09s.54,1.18,1.23.71Z" transform="translate(-0.25)" fill="#231f20"/></g><g id="af0ee7b4-ed85-426d-9c21-c7dc04c10ded" data-name="startrackers"><path d="M367.47,436.9c-1.31-1.9,1.65-1,2.56-.66,3.13,1.15,6.93,3.05,10.39,4.28-1.07,3.39-3.79,6.77-7.42,4a19.38,19.38,0,0,1-3.63-4.62c-.58-.82-1.07-2.55-1.9-3.13" transform="translate(-0.25)" fill="#a7a9ac"/><path d="M367.7,436.8c-.14-.2-.51-.72-.19-.91s.78,0,1,.09a13.89,13.89,0,0,1,2.26.74c2.43,1,4.79,2.08,7.21,3.07.59.24,1.24.41,1.8.7.33.17.32.25.19.59a9.47,9.47,0,0,1-.42,1,7.29,7.29,0,0,1-1.85,2.51c-2.33,1.92-4.76-.13-6.25-2a22.54,22.54,0,0,1-2.16-3.24,7.62,7.62,0,0,0-1.62-2.66c-.14-.11-.58.08-.45.19a5.56,5.56,0,0,1,1.36,2.15,18.64,18.64,0,0,0,1.31,2.19c1.07,1.62,2.36,3.49,4.25,4.22,3.32,1.28,5.61-2.19,6.49-4.9a.07.07,0,0,0-.05-.08c-3.55-1.28-6.9-3.05-10.46-4.31a5.89,5.89,0,0,0-2.44-.5c-.93.09-.91.72-.46,1.39.09.14.56,0,.45-.19Z" transform="translate(-0.25)" fill="#8a8c8e"/><path d="M375.66,443.81c-.89,4.39,5.55-1.7,4.22-3.29C379.88,440.52,376.1,441.74,375.66,443.81Z" transform="translate(-0.25)" fill="#231f20"/><path d="M375.42,443.85c-.09.44-.25,1.25.23,1.54s1.09,0,1.48-.24a6.69,6.69,0,0,0,1.62-1.33,7.11,7.11,0,0,0,1.27-1.76c.23-.48.46-1.16.08-1.62,0-.06-.2,0-.25,0a11.74,11.74,0,0,0-1.42.58,7.85,7.85,0,0,0-2.29,1.57,2.77,2.77,0,0,0-.72,1.28c0,.15.45.07.48-.07a3.47,3.47,0,0,1,1.56-1.95,10.27,10.27,0,0,1,2-1.05l.33-.13c.05,0,.2-.06.08,0h-.25a1.29,1.29,0,0,1,0,1.26,5.9,5.9,0,0,1-1,1.62,7.89,7.89,0,0,1-1.43,1.34,3,3,0,0,1-.65.36.47.47,0,0,1-.36.05c-.52-.17-.35-1.07-.27-1.46C375.93,443.63,375.45,443.7,375.42,443.85Z" transform="translate(-0.25)" fill="#8a8c8e"/><path d="M363.92,434.85c1.24-.26,2.07.6,3,1.37,1.32,1.11,2.89,2,4.13,3.17,1.48,1.28,5,3.42,4.54,5.56-.5,2.48-3,3.85-4.95,5-1.32.69-3.88,1.71-5.36,1.29-1.74-.6-1.33-3.25-1.66-4.79-.33-1.72-.9-3.6-1.32-5.31-.24-1-1-3.18-.32-4.12C362,437,363.1,435.11,363.92,434.85Z" transform="translate(-0.25)" fill="#bcbec0"/><path d="M363.91,435a3.24,3.24,0,0,1,2.61,1.17c.69.59,1.43,1.11,2.17,1.63,1.19.85,2.27,1.82,3.43,2.72a9.07,9.07,0,0,1,3,3.15c.61,1.42-.43,3-1.44,3.91a14.4,14.4,0,0,1-3.64,2.36c-1.26.61-3.14,1.46-4.58,1.09s-1.42-2.3-1.52-3.48a25.94,25.94,0,0,0-1-4.6c-.24-.88-.45-1.76-.69-2.64a7.52,7.52,0,0,1-.39-2.53A4.18,4.18,0,0,1,364,435c.31-.12,0-.4-.21-.3a5.09,5.09,0,0,0-2.1,2.25c-.74,1.3,0,3.16.38,4.48a38.64,38.64,0,0,1,1.39,6.07c.09,1.19,0,2.81,1.11,3.6s3.13.19,4.33-.25a17.76,17.76,0,0,0,4.26-2.31,5.89,5.89,0,0,0,2.64-3.77c.16-1.34-.95-2.46-1.85-3.29-.72-.65-1.5-1.22-2.26-1.81s-1.58-1.36-2.44-2-1.87-1.38-2.78-2.13a3.13,3.13,0,0,0-2.56-.91C363.67,434.71,363.58,435.08,363.91,435Z" transform="translate(-0.25)" fill="#939598"/><path d="M374.81,446.06c.62-.83,1.12-1.48,0-2.63-1.54-1.61-5.56.64-6.93,2-.8.83-4.33,4.62-1.79,5.33,1.67.51,4.83-1.67,6.25-2.44A12.55,12.55,0,0,0,374.81,446.06Z" transform="translate(-0.25)" fill="#231f20"/><path d="M375,446.14a3.11,3.11,0,0,0,.69-1.29,1.9,1.9,0,0,0-.67-1.53,2.7,2.7,0,0,0-2.42-.57,9.7,9.7,0,0,0-5.16,2.82,16.28,16.28,0,0,0-1.61,2,3.89,3.89,0,0,0-.9,2.24,1.4,1.4,0,0,0,1.46,1.2,6.14,6.14,0,0,0,3.11-.9,29.81,29.81,0,0,0,3.16-1.79,11,11,0,0,0,2.34-2.17c.2-.24-.26-.33-.41-.16a12.81,12.81,0,0,1-1.6,1.61,15.63,15.63,0,0,1-2.36,1.49,15.42,15.42,0,0,1-2.87,1.37c-.65.2-1.74.41-2.2-.27s0-1.36.3-1.86a11.59,11.59,0,0,1,1.43-2,10.19,10.19,0,0,1,3.77-2.75,4.12,4.12,0,0,1,3-.38,2.06,2.06,0,0,1,1.1,1.31c.12.56-.29,1-.6,1.46C374.43,446.23,374.88,446.32,375,446.14Z" transform="translate(-0.25)" fill="#939598"/><path d="M356.17,436.48c-2.2,6.09-8.16,10.82-2.24,15.4,3.36,2.6,12.23-1.51,11.86-2.61-.37-.06-5-11-5.26-11.95-.36-1.4-.94-1.62-2.4-1.58A7.59,7.59,0,0,0,356.17,436.48Z" transform="translate(-0.25)" fill="#d1d3d4" stroke="#b1b3b6" stroke-width="0.5"/><path d="M365.31,449.21c.8,2-5.35,3-6.49,3.11-1.74.23-5.23.13-5.86-2-.84-2.82,11.26-2.94,12.36-1.58Z" transform="translate(-0.25)" fill="#231f20"/><path d="M364.83,449.34c.61,1.7-3.16,2.31-4.17,2.52-1.9.38-4.1.69-5.91-.22-.64-.32-1.61-1.16-1.29-2,.2-.53.86-.78,1.36-.94a18.09,18.09,0,0,1,5.82-.6,16,16,0,0,1,2.93.28,4.17,4.17,0,0,1,.93.28c.36.17.33.28.33.67,0,.12,1,0,1-.26s0-.5-.28-.68a3.17,3.17,0,0,0-.94-.32,14.65,14.65,0,0,0-2.95-.33,21.16,21.16,0,0,0-6.91.7,4.06,4.06,0,0,0-2,1.12c-.55.73.07,1.62.68,2.08,1.84,1.4,4.68,1,6.8.6a17.49,17.49,0,0,0,3.95-1.13c.77-.33,2.08-1,1.7-2C365.72,448.87,364.77,449.17,364.83,449.34Z" transform="translate(-0.25)" fill="#b1b3b6"/></g></g></svg>